<?xml version="1.0" encoding="UTF-8"?>
<!DOCTYPE svg PUBLIC "-//W3C//DTD SVG 1.1//EN" "http://www.w3.org/Graphics/SVG/1.1/DTD/svg11.dtd">
<!-- Creator: CorelDRAW 2020 (64-Bit) -->
<svg xmlns="http://www.w3.org/2000/svg" xml:space="preserve" width="0.385606in" height="0.167358in" version="1.1" style="shape-rendering:geometricPrecision; text-rendering:geometricPrecision; image-rendering:optimizeQuality; fill-rule:evenodd; clip-rule:evenodd"
viewBox="0 0 22.74 9.87"
 xmlns:xlink="http://www.w3.org/1999/xlink"
 xmlns:xodm="http://www.corel.com/coreldraw/odm/2003">
 <defs>
  <style type="text/css">
   <![CDATA[
    .str0 {stroke:#373435;stroke-width:0.46;stroke-miterlimit:22.9256}
    .fil0 {fill:none}
   ]]>
  </style>
 </defs>
 <g id="Layer_x0020_1">
  <metadata id="CorelCorpID_0Corel-Layer"/>
  <path class="fil0 str0" d="M0.27 8.12c-0.29,2.42 1.03,1.13 4.02,-0.5 1.92,-1.05 11.61,-5.76 4.69,-7.22 -7.4,-1.56 2.09,7.97 -5.03,8.58 -2.06,0.18 0.73,-7.67 4.13,-2.54 2.08,3.14 4.16,0.81 6.51,0.71 2.05,-0.09 -0.67,-1.63 2.62,-0.41 0.02,0.01 4.72,-0.09 5.28,-0.09 0,-3.38 -2.02,-3.94 -5.04,-2.95 -3.31,1.09 3.42,8.44 -12.55,5.06 -3.91,-0.83 1.55,-0.49 4.02,-0.77 3.69,-0.41 8.5,-1.71 11.98,-1.71"/>
 </g>
</svg>
