<?xml version="1.0" encoding="UTF-8"?>
<!DOCTYPE svg PUBLIC "-//W3C//DTD SVG 1.1//EN" "http://www.w3.org/Graphics/SVG/1.1/DTD/svg11.dtd">
<!-- Creator: CorelDRAW 2020 (64-Bit) -->
<svg xmlns="http://www.w3.org/2000/svg" xml:space="preserve" width="0.750287in" height="0.287638in" version="1.1" style="shape-rendering:geometricPrecision; text-rendering:geometricPrecision; image-rendering:optimizeQuality; fill-rule:evenodd; clip-rule:evenodd"
viewBox="0 0 750.28 287.64"
 xmlns:xlink="http://www.w3.org/1999/xlink"
 xmlns:xodm="http://www.corel.com/coreldraw/odm/2003">
 <defs>
  <style type="text/css">
   <![CDATA[
    .fil0 {fill:#282829}
    .fil1 {fill:#282829;fill-rule:nonzero}
   ]]>
  </style>
   <clipPath id="id0">
    <rect width="276.69" height="276.68"/>
   </clipPath>
 </defs>
 <g id="Layer_x0020_1">
  <metadata id="CorelCorpID_0Corel-Layer"/>
  <g style="clip-path:url(#id0)">
   <image x="-0" y="0" width="276.68" height="276.68" xlink:href="Worker IDs_Images\Worker IDs_ImgID1.png"/>
  </g>
  <ellipse class="fil0" cx="254.2" cy="158.34" rx="3.21" ry="129.29"/>
  <path class="fil1" d="M295.8 144.68l-14.62 0 0 -65.32 14.62 0 0 65.32zm38.9 0l-49.42 0 0 -13.16 49.42 0 0 13.16z"/>
  <path id="1" class="fil1" d="M392.62 144.68l-13.65 0 0 -11.6 -0.78 -0.19 0 -17.06c0,-3.19 -0.8,-5.33 -2.39,-6.43 -1.59,-1.11 -4.34,-1.66 -8.24,-1.66 -3.7,0 -6.37,0.55 -8,1.66 -1.63,1.1 -2.44,3.06 -2.44,5.85l0 0.39 -14.72 0 0 -0.3c0,-4.03 1.07,-7.59 3.22,-10.67 2.15,-3.09 5.18,-5.49 9.11,-7.22 3.93,-1.72 8.56,-2.58 13.89,-2.58 5.46,0 9.96,0.88 13.5,2.63 3.54,1.75 6.17,4.21 7.89,7.36 1.72,3.15 2.59,6.87 2.59,11.17l0 28.66zm-34.32 0.98c-5.26,0 -9.39,-1.17 -12.38,-3.51 -2.99,-2.34 -4.48,-5.52 -4.48,-9.56 0,-2.47 0.59,-4.58 1.76,-6.33 1.17,-1.76 2.93,-3.17 5.26,-4.24 2.34,-1.07 5.26,-1.81 8.78,-2.2l21.93 -2.24 0 8.39 -17.94 2.05c-1.76,0.13 -3.04,0.47 -3.85,1.02 -0.81,0.55 -1.22,1.41 -1.22,2.58 0,1.3 0.52,2.24 1.56,2.83 1.04,0.58 2.63,0.88 4.78,0.88 3.51,0 6.4,-0.33 8.68,-0.98 2.28,-0.65 4.01,-1.7 5.22,-3.17 1.2,-1.46 1.8,-3.43 1.8,-5.9l1.36 -0.1 0 8.29 -1.36 0c-1.11,3.77 -3.33,6.74 -6.68,8.92 -3.35,2.18 -7.75,3.27 -13.21,3.27z"/>
  <path id="2" class="fil1" d="M412.13 161.25l-8 0 0 -13.26 11.99 0c1.82,0 3.19,-0.26 4.09,-0.78 0.91,-0.52 1.66,-1.43 2.24,-2.73l2.05 -4.78 -1.46 6.82 -24.67 -50.69 16.57 0 10.33 22.32 4.09 11.5 0.97 0 3.9 -11.6 9.26 -22.23 16.28 0 -24.18 52.35c-1.56,3.38 -3.38,6.03 -5.46,7.95 -2.08,1.92 -4.58,3.25 -7.51,4 -2.93,0.75 -6.43,1.12 -10.53,1.12z"/>
  <path id="3" class="fil1" d="M491.98 145.65c-5.39,0 -10.17,-0.91 -14.33,-2.73 -4.16,-1.82 -7.37,-4.61 -9.65,-8.38 -2.28,-3.77 -3.41,-8.52 -3.41,-14.24 0,-5.2 1.14,-9.7 3.41,-13.5 2.28,-3.8 5.44,-6.74 9.5,-8.82 4.06,-2.08 8.79,-3.12 14.18,-3.12 5.33,0 9.99,0.91 13.99,2.73 4,1.82 7.1,4.5 9.31,8.04 2.21,3.54 3.31,7.85 3.31,12.92 0,0.84 -0.03,1.62 -0.09,2.34 -0.07,0.71 -0.17,1.5 -0.3,2.34l-43.87 0 0 -7.7 33.54 0 -3.31 4.78c0,-0.65 0,-1.27 0,-1.85 0,-0.59 0,-1.17 0,-1.76 0,-3.7 -1.01,-6.37 -3.02,-8 -2.02,-1.62 -5.3,-2.44 -9.85,-2.44 -4.94,0 -8.39,0.96 -10.33,2.88 -1.95,1.92 -2.93,4.96 -2.93,9.11l0 3.7c0,4.16 0.98,7.2 2.93,9.12 1.95,1.92 5.43,2.87 10.43,2.87 4.29,0 7.31,-0.55 9.07,-1.66 1.75,-1.11 2.63,-2.7 2.63,-4.78l0 -0.98 14.63 0 0 1.07c0,3.51 -1.07,6.63 -3.22,9.36 -2.14,2.73 -5.15,4.86 -9.02,6.39 -3.87,1.53 -8.4,2.29 -13.6,2.29z"/>
  <path id="4" class="fil1" d="M541.91 144.68l-14.62 0 0 -48.84 13.55 0 0 13.94 1.07 0.49 0 34.41zm0 -28.27l-2.93 0 0 -7.61 2.73 0c0.46,-2.67 1.35,-5.05 2.68,-7.17 1.33,-2.11 3.14,-3.77 5.41,-4.97 2.28,-1.2 5.04,-1.8 8.29,-1.8 3.7,0 6.68,0.76 8.92,2.29 2.24,1.53 3.89,3.57 4.93,6.14 1.04,2.57 1.56,5.44 1.56,8.63l0 8.09 -14.62 0 0 -5.07c0,-2.73 -0.6,-4.69 -1.8,-5.9 -1.2,-1.2 -3.3,-1.8 -6.29,-1.8 -3.25,0 -5.54,0.75 -6.87,2.24 -1.33,1.49 -2,3.8 -2,6.92z"/>
  <path id="5" class="fil1" d="M606.17 145.65c-8.19,0 -14.5,-1.54 -18.91,-4.63 -4.42,-3.09 -6.63,-7.46 -6.63,-13.11l0 -0.3 14.62 0 0 0.88c0,2.21 0.8,3.69 2.39,4.44 1.59,0.75 4.47,1.12 8.63,1.12 3.9,0 6.48,-0.34 7.75,-1.02 1.27,-0.69 1.9,-1.74 1.9,-3.17 0,-1.37 -0.49,-2.32 -1.46,-2.87 -0.97,-0.56 -2.89,-1.02 -5.75,-1.42l-13.74 -1.66c-4.87,-0.52 -8.63,-1.88 -11.26,-4.09 -2.63,-2.21 -3.95,-5.39 -3.95,-9.55 0,-2.86 0.84,-5.44 2.54,-7.75 1.69,-2.31 4.3,-4.16 7.85,-5.56 3.54,-1.4 8.11,-2.1 13.7,-2.1 5.33,0 9.86,0.67 13.6,2 3.74,1.33 6.58,3.33 8.53,6 1.95,2.67 2.93,5.98 2.93,9.94l0 0.3 -14.62 0 0 -0.59c0,-1.36 -0.28,-2.48 -0.83,-3.36 -0.55,-0.88 -1.62,-1.54 -3.22,-2 -1.59,-0.45 -3.88,-0.68 -6.87,-0.68 -3.64,0 -6.07,0.34 -7.31,1.02 -1.23,0.68 -1.85,1.8 -1.85,3.36 0,1.24 0.5,2.16 1.51,2.78 1,0.62 3.1,1.15 6.29,1.61l10.43 1.26c6.5,0.72 11.11,2.21 13.85,4.49 2.73,2.27 4.09,5.43 4.09,9.46 0,3.06 -0.98,5.72 -2.93,7.99 -1.95,2.28 -4.71,4.05 -8.29,5.31 -3.57,1.27 -7.9,1.9 -12.96,1.9z"/>
  <path id="6" class="fil1" d="M680.08 145.65c-5.52,0 -10.38,-1.04 -14.57,-3.12 -4.19,-2.08 -7.46,-5.02 -9.8,-8.82 -2.34,-3.8 -3.51,-8.27 -3.51,-13.41 0,-5.2 1.17,-9.7 3.51,-13.5 2.34,-3.8 5.61,-6.74 9.8,-8.82 4.19,-2.08 9.05,-3.12 14.57,-3.12 5.59,0 10.46,1.04 14.63,3.12 4.16,2.08 7.41,5.02 9.75,8.82 2.34,3.8 3.51,8.3 3.51,13.5 0,5.13 -1.17,9.6 -3.51,13.41 -2.34,3.8 -5.59,6.74 -9.75,8.82 -4.16,2.08 -9.04,3.12 -14.63,3.12zm0 -12.97c4.94,0 8.4,-0.99 10.39,-2.97 1.98,-1.98 2.97,-5.12 2.97,-9.41 0,-4.35 -0.99,-7.54 -2.97,-9.56 -1.98,-2.01 -5.44,-3.02 -10.39,-3.02 -4.94,0 -8.4,1.01 -10.38,3.02 -1.98,2.02 -2.97,5.2 -2.97,9.56 0,4.29 0.99,7.43 2.97,9.41 1.98,1.98 5.44,2.97 10.38,2.97z"/>
  <path id="7" class="fil1" d="M735.17 144.68l-14.62 0 0 -45.53c0,-3.9 0.96,-7.33 2.88,-10.29 1.92,-2.96 4.78,-5.28 8.58,-6.97 3.8,-1.69 8.46,-2.54 13.99,-2.54l4.29 0 0 10.63 -6.63 0c-3.77,0 -6.37,0.57 -7.8,1.7 -1.43,1.14 -1.66,3.53 -0.69,7.17l0 2.44 0 43.39zm15.11 -36.76l-36.66 0 0 -12.09 36.66 0 0 12.09z"/>
  <path id="8" class="fil1" d="M317.54 236.35l-14.62 0 0 -65.32 14.62 0 0 65.32zm24.28 -52.16l-63.17 0 0 -13.16 63.17 0 0 13.16z"/>
  <path id="9" class="fil1" d="M364.44 236.35l-14.62 0 0 -48.84 13.55 0 0 13.94 1.07 0.49 0 34.41zm0 -28.27l-2.93 0 0 -7.61 2.73 0c0.46,-2.67 1.35,-5.05 2.68,-7.17 1.33,-2.11 3.14,-3.77 5.41,-4.97 2.28,-1.2 5.04,-1.8 8.29,-1.8 3.7,0 6.68,0.76 8.92,2.29 2.24,1.53 3.89,3.57 4.93,6.14 1.04,2.57 1.56,5.44 1.56,8.63l0 8.09 -14.62 0 0 -5.07c0,-2.73 -0.6,-4.69 -1.8,-5.9 -1.2,-1.2 -3.3,-1.8 -6.29,-1.8 -3.25,0 -5.54,0.75 -6.87,2.24 -1.33,1.49 -2,3.8 -2,6.92z"/>
  <path id="10" class="fil1" d="M424.21 237.33c-4.55,0 -8.33,-0.86 -11.35,-2.59 -3.02,-1.72 -5.27,-4.04 -6.73,-6.97 -1.46,-2.93 -2.19,-6.21 -2.19,-9.85l0 -30.42 14.62 0 0 25.54c0,3.9 0.94,6.74 2.83,8.53 1.89,1.79 5.14,2.68 9.75,2.68 4.81,0 8.17,-0.96 10.09,-2.87 1.92,-1.92 2.87,-4.96 2.87,-9.11l1.85 -0.1 1.07 9.26 -2.73 0c-0.39,2.73 -1.35,5.3 -2.88,7.7 -1.53,2.4 -3.7,4.37 -6.53,5.9 -2.83,1.53 -6.39,2.29 -10.68,2.29zm34.52 -0.98l-13.65 0 0 -15.11 -0.98 -0.49 0 -33.24 14.63 0 0 48.84z"/>
  <path id="11" class="fil1" d="M503.39 236.35l-12.09 0c-5.72,0 -10.2,-1.4 -13.45,-4.19 -3.25,-2.8 -4.87,-7.28 -4.87,-13.45l0 -40.65 14.62 0 0 39c0,2.47 0.54,4.11 1.61,4.92 1.07,0.81 2.87,1.22 5.41,1.22l8.78 0 0 13.16zm0 -36.76l-38.12 0 0 -12.09 38.12 0 0 12.09z"/>
  <path id="12" class="fil1" d="M566.38 236.35l-14.62 0 0 -25.54c0,-4.09 -0.96,-6.97 -2.88,-8.63 -1.92,-1.66 -5.18,-2.49 -9.8,-2.49 -3.25,0 -5.82,0.46 -7.7,1.37 -1.88,0.91 -3.22,2.26 -4,4.04 -0.78,1.79 -1.17,4.05 -1.17,6.78l-2.15 0 0.2 -9.46 2.73 0c0.52,-2.79 1.53,-5.39 3.02,-7.8 1.49,-2.4 3.62,-4.35 6.39,-5.85 2.76,-1.5 6.22,-2.24 10.38,-2.24 4.35,0 8,0.88 10.92,2.63 2.93,1.75 5.1,4.13 6.54,7.11 1.43,2.99 2.14,6.37 2.14,10.14l0 29.93zm-40.17 0l-14.62 0 0 -65.32 14.62 0 0 65.32z"/>
 </g>
</svg>
