<?xml version="1.0" encoding="UTF-8"?>
<!DOCTYPE svg PUBLIC "-//W3C//DTD SVG 1.1//EN" "http://www.w3.org/Graphics/SVG/1.1/DTD/svg11.dtd">
<!-- Creator: CorelDRAW 2020 (64-Bit) -->
<svg xmlns="http://www.w3.org/2000/svg" xml:space="preserve" width="2.20178in" height="0.712575in" version="1.1" style="shape-rendering:geometricPrecision; text-rendering:geometricPrecision; image-rendering:optimizeQuality; fill-rule:evenodd; clip-rule:evenodd"
viewBox="0 0 815.86 264.04"
 xmlns:xlink="http://www.w3.org/1999/xlink"
 xmlns:xodm="http://www.corel.com/coreldraw/odm/2003">
 <defs>
  <style type="text/css">
   <![CDATA[
    .fil101 {fill:#373435}
    .fil93 {fill:#FBB777}
    .fil94 {fill:#FBB677}
    .fil95 {fill:#FBB676}
    .fil96 {fill:#FBB576}
    .fil97 {fill:#FAB476}
    .fil98 {fill:#FAB475}
    .fil99 {fill:#FAB375}
    .fil82 {fill:#FABE7B}
    .fil83 {fill:#FABD7B}
    .fil84 {fill:#FABD7A}
    .fil85 {fill:#FABC7A}
    .fil86 {fill:#FABB79}
    .fil87 {fill:#FABA79}
    .fil88 {fill:#FABA79}
    .fil89 {fill:#FAB978}
    .fil90 {fill:#FAB878}
    .fil91 {fill:#FAB778}
    .fil92 {fill:#FAB777}
    .fil68 {fill:#FAC681}
    .fil69 {fill:#FAC680}
    .fil70 {fill:#FAC580}
    .fil71 {fill:#FAC480}
    .fil72 {fill:#FAC47F}
    .fil73 {fill:#FAC37F}
    .fil74 {fill:#FAC37F}
    .fil75 {fill:#FAC27E}
    .fil76 {fill:#FAC17E}
    .fil77 {fill:#F9C17D}
    .fil78 {fill:#F9C17D}
    .fil79 {fill:#F9C07D}
    .fil80 {fill:#F9BF7C}
    .fil81 {fill:#F9BE7C}
    .fil56 {fill:#FACD86}
    .fil57 {fill:#FACD85}
    .fil58 {fill:#FACC85}
    .fil59 {fill:#FACB84}
    .fil60 {fill:#FACA84}
    .fil61 {fill:#F9CA83}
    .fil62 {fill:#F9C983}
    .fil63 {fill:#F9C983}
    .fil64 {fill:#F9C882}
    .fil65 {fill:#F9C782}
    .fil66 {fill:#F9C781}
    .fil67 {fill:#F9C681}
    .fil45 {fill:#F9D48A}
    .fil46 {fill:#F9D389}
    .fil47 {fill:#F9D389}
    .fil48 {fill:#F9D289}
    .fil49 {fill:#F9D288}
    .fil50 {fill:#F9D188}
    .fil51 {fill:#F9D088}
    .fil52 {fill:#F9D087}
    .fil53 {fill:#F9CF87}
    .fil54 {fill:#F9CE87}
    .fil55 {fill:#F9CE86}
    .fil100 {fill:#F9CD86}
    .fil31 {fill:#F9DB8F}
    .fil32 {fill:#F9DB8F}
    .fil33 {fill:#F9DA8F}
    .fil34 {fill:#F9DA8E}
    .fil35 {fill:#F9D98E}
    .fil36 {fill:#F9D98E}
    .fil37 {fill:#F9D88D}
    .fil38 {fill:#F9D78D}
    .fil39 {fill:#F9D78C}
    .fil40 {fill:#F9D78C}
    .fil41 {fill:#F9D68C}
    .fil42 {fill:#F9D58B}
    .fil43 {fill:#F9D58B}
    .fil44 {fill:#F9D48B}
    .fil20 {fill:#F9E394}
    .fil21 {fill:#F9E294}
    .fil22 {fill:#F8E294}
    .fil23 {fill:#F8E193}
    .fil24 {fill:#F8E093}
    .fil25 {fill:#F8E093}
    .fil26 {fill:#F8DF92}
    .fil27 {fill:#F8DE92}
    .fil28 {fill:#F8DD91}
    .fil29 {fill:#F8DD90}
    .fil30 {fill:#F8DC90}
    .fil7 {fill:#F8EA9A}
    .fil8 {fill:#F8E999}
    .fil9 {fill:#F8E999}
    .fil10 {fill:#F8E899}
    .fil11 {fill:#F8E898}
    .fil12 {fill:#F8E798}
    .fil13 {fill:#F8E698}
    .fil14 {fill:#F8E697}
    .fil15 {fill:#F8E697}
    .fil16 {fill:#F8E597}
    .fil17 {fill:#F8E496}
    .fil18 {fill:#F8E495}
    .fil19 {fill:#F8E395}
    .fil4 {fill:#F8EE9D}
    .fil3 {fill:#F8EE9D}
    .fil2 {fill:#F8ED9C}
    .fil1 {fill:#F8EC9C}
    .fil5 {fill:#F8EB9B}
    .fil0 {fill:#F8EB9B}
    .fil6 {fill:#F8EA9B}
   ]]>
  </style>
    <clipPath id="id0">
     <path d="M-0 245.73l815.2 0 0 -92.54c-226.43,116.08 -607.35,-137.36 -815.2,-153.19l0 245.73z"/>
    </clipPath>
 </defs>
 <g id="Layer_x0020_1">
  <metadata id="CorelCorpID_0Corel-Layer"/>
  <g>
   <g style="clip-path:url(#id0)">
    <polygon class="fil0" points="217.82,-292.17 218.6,-291.59 -116.97,158.52 -117.75,157.94 "/>
    <polygon id="1" class="fil0" points="218.15,-291.93 219.5,-290.92 -116.07,159.2 -117.42,158.19 "/>
    <polygon id="2" class="fil1" points="219.05,-291.25 220.41,-290.24 -115.16,159.87 -116.52,158.86 "/>
    <polygon id="3" class="fil2" points="219.95,-290.58 221.31,-289.57 -114.26,160.55 -115.62,159.54 "/>
    <polygon id="4" class="fil2" points="220.86,-289.91 222.21,-288.89 -113.36,161.22 -114.71,160.21 "/>
    <polygon id="5" class="fil3" points="221.76,-289.23 223.12,-288.22 -112.45,161.89 -113.81,160.88 "/>
    <polygon id="6" class="fil4" points="222.67,-288.56 224.02,-287.55 -111.55,162.57 -112.9,161.56 "/>
    <polygon id="7" class="fil4" points="223.57,-287.88 224.93,-286.87 -110.64,163.24 -112,162.23 "/>
    <polygon id="8" class="fil3" points="224.47,-287.21 225.83,-286.2 -109.74,163.92 -111.1,162.91 "/>
    <polygon id="9" class="fil2" points="225.38,-286.54 226.73,-285.52 -108.84,164.59 -110.19,163.58 "/>
    <polygon id="10" class="fil2" points="226.28,-285.86 227.64,-284.85 -107.93,165.26 -109.29,164.25 "/>
    <polygon id="11" class="fil1" points="227.19,-285.19 228.54,-284.18 -107.03,165.94 -108.38,164.93 "/>
    <polygon id="12" class="fil5" points="228.09,-284.51 229.45,-283.5 -106.12,166.61 -107.48,165.6 "/>
    <polygon id="13" class="fil0" points="228.99,-283.84 230.35,-282.83 -105.22,167.29 -106.58,166.27 "/>
    <polygon id="14" class="fil6" points="229.9,-283.17 231.25,-282.15 -104.32,167.96 -105.67,166.95 "/>
    <polygon id="15" class="fil7" points="230.8,-282.49 232.16,-281.48 -103.41,168.63 -104.77,167.62 "/>
    <polygon id="16" class="fil7" points="231.71,-281.82 233.06,-280.81 -102.51,169.31 -103.86,168.3 "/>
    <polygon id="17" class="fil8" points="232.61,-281.14 233.97,-280.13 -101.6,169.98 -102.96,168.97 "/>
    <polygon id="18" class="fil8" points="233.51,-280.47 234.87,-279.46 -100.7,170.66 -102.06,169.64 "/>
    <polygon id="19" class="fil9" points="234.42,-279.8 235.77,-278.78 -99.8,171.33 -101.15,170.32 "/>
    <polygon id="20" class="fil10" points="235.32,-279.12 236.68,-278.11 -98.89,172 -100.25,170.99 "/>
    <polygon id="21" class="fil11" points="236.23,-278.45 237.58,-277.44 -97.99,172.68 -99.34,171.67 "/>
    <polygon id="22" class="fil12" points="237.13,-277.77 238.49,-276.76 -97.08,173.35 -98.44,172.34 "/>
    <polygon id="23" class="fil13" points="238.03,-277.1 239.39,-276.09 -96.18,174.03 -97.53,173.01 "/>
    <polygon id="24" class="fil14" points="238.94,-276.43 240.29,-275.41 -95.27,174.7 -96.63,173.69 "/>
    <polygon id="25" class="fil15" points="239.84,-275.75 241.2,-274.74 -94.37,175.37 -95.73,174.36 "/>
    <polygon id="26" class="fil16" points="240.75,-275.08 242.1,-274.07 -93.47,176.05 -94.82,175.04 "/>
    <polygon id="27" class="fil16" points="241.65,-274.4 243.01,-273.39 -92.56,176.72 -93.92,175.71 "/>
    <polygon id="28" class="fil17" points="242.55,-273.73 243.91,-272.72 -91.66,177.4 -93.02,176.38 "/>
    <polygon id="29" class="fil17" points="243.46,-273.06 244.81,-272.04 -90.76,178.07 -92.11,177.06 "/>
    <polygon id="30" class="fil18" points="244.36,-272.38 245.72,-271.37 -89.85,178.74 -91.21,177.73 "/>
    <polygon id="31" class="fil19" points="245.27,-271.71 246.62,-270.7 -88.95,179.42 -90.3,178.41 "/>
    <polygon id="32" class="fil20" points="246.17,-271.03 247.53,-270.02 -88.04,180.09 -89.4,179.08 "/>
    <polygon id="33" class="fil21" points="247.08,-270.36 248.43,-269.35 -87.14,180.77 -88.49,179.75 "/>
    <polygon id="34" class="fil22" points="247.98,-269.69 249.34,-268.67 -86.23,181.44 -87.59,180.43 "/>
    <polygon id="35" class="fil22" points="248.88,-269.01 250.24,-268 -85.33,182.11 -86.69,181.1 "/>
    <polygon id="36" class="fil23" points="249.79,-268.34 251.14,-267.33 -84.43,182.79 -85.78,181.78 "/>
    <polygon id="37" class="fil24" points="250.69,-267.66 252.05,-266.65 -83.52,183.46 -84.88,182.45 "/>
    <polygon id="38" class="fil24" points="251.59,-266.99 252.95,-265.98 -82.62,184.14 -83.97,183.12 "/>
    <polygon id="39" class="fil25" points="252.5,-266.32 253.85,-265.3 -81.72,184.81 -83.07,183.8 "/>
    <polygon id="40" class="fil26" points="253.4,-265.64 254.76,-264.63 -80.81,185.48 -82.17,184.47 "/>
    <polygon id="41" class="fil26" points="254.31,-264.97 255.66,-263.96 -79.91,186.16 -81.26,185.15 "/>
    <polygon id="42" class="fil27" points="255.21,-264.29 256.57,-263.28 -79,186.83 -80.36,185.82 "/>
    <polygon id="43" class="fil27" points="256.12,-263.62 257.47,-262.61 -78.1,187.51 -79.45,186.49 "/>
    <polygon id="44" class="fil28" points="257.02,-262.95 258.38,-261.94 -77.19,188.18 -78.55,187.17 "/>
    <polygon id="45" class="fil29" points="257.92,-262.27 259.28,-261.26 -76.29,188.85 -77.65,187.84 "/>
    <polygon id="46" class="fil29" points="258.83,-261.6 260.18,-260.59 -75.39,189.53 -76.74,188.52 "/>
    <polygon id="47" class="fil30" points="259.73,-260.92 261.09,-259.91 -74.48,190.2 -75.84,189.19 "/>
    <polygon id="48" class="fil31" points="260.64,-260.25 261.99,-259.24 -73.58,190.88 -74.93,189.86 "/>
    <polygon id="49" class="fil31" points="261.54,-259.58 262.89,-258.57 -72.67,191.55 -74.03,190.54 "/>
    <polygon id="50" class="fil32" points="262.44,-258.9 263.8,-257.89 -71.77,192.22 -73.13,191.21 "/>
    <polygon id="51" class="fil33" points="263.35,-258.23 264.7,-257.22 -70.87,192.9 -72.22,191.89 "/>
    <polygon id="52" class="fil34" points="264.25,-257.55 265.61,-256.54 -69.96,193.57 -71.32,192.56 "/>
    <polygon id="53" class="fil35" points="265.16,-256.88 266.51,-255.87 -69.06,194.25 -70.41,193.23 "/>
    <polygon id="54" class="fil36" points="266.06,-256.21 267.42,-255.2 -68.15,194.92 -69.51,193.91 "/>
    <polygon id="55" class="fil36" points="266.96,-255.53 268.32,-254.52 -67.25,195.59 -68.61,194.58 "/>
    <polygon id="56" class="fil37" points="267.87,-254.86 269.22,-253.85 -66.35,196.27 -67.7,195.26 "/>
    <polygon id="57" class="fil37" points="268.77,-254.18 270.13,-253.17 -65.44,196.94 -66.8,195.93 "/>
    <polygon id="58" class="fil38" points="269.68,-253.51 271.03,-252.5 -64.54,197.62 -65.89,196.6 "/>
    <polygon id="59" class="fil39" points="270.58,-252.84 271.94,-251.83 -63.63,198.29 -64.99,197.28 "/>
    <polygon id="60" class="fil40" points="271.48,-252.16 272.84,-251.15 -62.73,198.96 -64.09,197.95 "/>
    <polygon id="61" class="fil41" points="272.39,-251.49 273.74,-250.48 -61.83,199.64 -63.18,198.63 "/>
    <polygon id="62" class="fil42" points="273.29,-250.81 274.65,-249.8 -60.92,200.31 -62.28,199.3 "/>
    <polygon id="63" class="fil43" points="274.2,-250.14 275.55,-249.13 -60.02,200.98 -61.37,199.97 "/>
    <polygon id="64" class="fil44" points="275.1,-249.47 276.46,-248.46 -59.11,201.66 -60.47,200.65 "/>
    <polygon id="65" class="fil45" points="276,-248.79 277.36,-247.78 -58.21,202.33 -59.57,201.32 "/>
    <polygon id="66" class="fil45" points="276.91,-248.12 278.26,-247.11 -57.31,203.01 -58.66,202 "/>
    <polygon id="67" class="fil46" points="277.81,-247.44 279.17,-246.43 -56.4,203.68 -57.76,202.67 "/>
    <polygon id="68" class="fil46" points="278.72,-246.77 280.07,-245.76 -55.5,204.35 -56.85,203.34 "/>
    <polygon id="69" class="fil47" points="279.62,-246.1 280.98,-245.09 -54.59,205.03 -55.95,204.02 "/>
    <polygon id="70" class="fil48" points="280.52,-245.42 281.88,-244.41 -53.69,205.7 -55.05,204.69 "/>
    <polygon id="71" class="fil49" points="281.43,-244.75 282.78,-243.74 -52.78,206.38 -54.14,205.37 "/>
    <polygon id="72" class="fil50" points="282.33,-244.07 283.69,-243.06 -51.88,207.05 -53.24,206.04 "/>
    <polygon id="73" class="fil51" points="283.24,-243.4 284.59,-242.39 -50.98,207.72 -52.33,206.71 "/>
    <polygon id="74" class="fil51" points="284.14,-242.73 285.5,-241.72 -50.07,208.4 -51.43,207.39 "/>
    <polygon id="75" class="fil52" points="285.04,-242.05 286.4,-241.04 -49.17,209.07 -50.53,208.06 "/>
    <polygon id="76" class="fil53" points="285.95,-241.38 287.3,-240.37 -48.27,209.75 -49.62,208.74 "/>
    <polygon id="77" class="fil53" points="286.85,-240.7 288.21,-239.69 -47.36,210.42 -48.72,209.41 "/>
    <polygon id="78" class="fil54" points="287.76,-240.03 289.11,-239.02 -46.46,211.09 -47.81,210.08 "/>
    <polygon id="79" class="fil55" points="288.66,-239.36 290.02,-238.35 -45.55,211.77 -46.91,210.76 "/>
    <polygon id="80" class="fil55" points="289.56,-238.68 290.92,-237.67 -44.65,212.44 -46.01,211.43 "/>
    <polygon id="81" class="fil56" points="290.47,-238.01 291.83,-237 -43.74,213.12 -45.1,212.11 "/>
    <polygon id="82" class="fil56" points="291.37,-237.33 292.73,-236.32 -42.84,213.79 -44.2,212.78 "/>
    <polygon id="83" class="fil57" points="292.28,-236.66 293.63,-235.65 -41.94,214.46 -43.29,213.45 "/>
    <polygon id="84" class="fil58" points="293.18,-235.99 294.54,-234.98 -41.03,215.14 -42.39,214.13 "/>
    <polygon id="85" class="fil58" points="294.08,-235.31 295.44,-234.3 -40.13,215.81 -41.48,214.8 "/>
    <polygon id="86" class="fil59" points="294.99,-234.64 296.34,-233.63 -39.23,216.49 -40.58,215.48 "/>
    <polygon id="87" class="fil60" points="295.89,-233.96 297.25,-232.95 -38.32,217.16 -39.68,216.15 "/>
    <polygon id="88" class="fil60" points="296.8,-233.29 298.15,-232.28 -37.42,217.83 -38.77,216.82 "/>
    <polygon id="89" class="fil61" points="297.7,-232.62 299.06,-231.61 -36.51,218.51 -37.87,217.5 "/>
    <polygon id="90" class="fil62" points="298.6,-231.94 299.96,-230.93 -35.61,219.18 -36.97,218.17 "/>
    <polygon id="91" class="fil63" points="299.51,-231.27 300.87,-230.26 -34.7,219.86 -36.06,218.85 "/>
    <polygon id="92" class="fil64" points="300.41,-230.59 301.77,-229.58 -33.8,220.53 -35.16,219.52 "/>
    <polygon id="93" class="fil65" points="301.32,-229.92 302.67,-228.91 -32.9,221.2 -34.25,220.19 "/>
    <polygon id="94" class="fil65" points="302.22,-229.25 303.58,-228.24 -31.99,221.88 -33.35,220.87 "/>
    <polygon id="95" class="fil66" points="303.13,-228.57 304.48,-227.56 -31.09,222.55 -32.44,221.54 "/>
    <polygon id="96" class="fil66" points="304.03,-227.9 305.38,-226.89 -30.18,223.23 -31.54,222.22 "/>
    <polygon id="97" class="fil67" points="304.93,-227.22 306.29,-226.21 -29.28,223.9 -30.64,222.89 "/>
    <polygon id="98" class="fil68" points="305.84,-226.55 307.19,-225.54 -28.38,224.57 -29.73,223.56 "/>
    <polygon id="99" class="fil69" points="306.74,-225.88 308.1,-224.87 -27.47,225.25 -28.83,224.24 "/>
    <polygon id="100" class="fil70" points="307.64,-225.2 309,-224.19 -26.57,225.92 -27.92,224.91 "/>
    <polygon id="101" class="fil71" points="308.55,-224.53 309.91,-223.52 -25.66,226.6 -27.02,225.59 "/>
    <polygon id="102" class="fil72" points="309.45,-223.86 310.81,-222.84 -24.76,227.27 -26.12,226.26 "/>
    <polygon id="103" class="fil73" points="310.36,-223.18 311.71,-222.17 -23.86,227.94 -25.21,226.93 "/>
    <polygon id="104" class="fil74" points="311.26,-222.51 312.62,-221.5 -22.95,228.62 -24.31,227.61 "/>
    <polygon id="105" class="fil74" points="312.17,-221.83 313.52,-220.82 -22.05,229.29 -23.4,228.28 "/>
    <polygon id="106" class="fil75" points="313.07,-221.16 314.43,-220.15 -21.14,229.97 -22.5,228.96 "/>
    <polygon id="107" class="fil75" points="313.97,-220.49 315.33,-219.47 -20.24,230.64 -21.6,229.63 "/>
    <polygon id="108" class="fil76" points="314.88,-219.81 316.23,-218.8 -19.34,231.31 -20.69,230.3 "/>
    <polygon id="109" class="fil77" points="315.78,-219.14 317.14,-218.13 -18.43,231.99 -19.79,230.98 "/>
    <polygon id="110" class="fil78" points="316.69,-218.46 318.04,-217.45 -17.53,232.66 -18.88,231.65 "/>
    <polygon id="111" class="fil79" points="317.59,-217.79 318.95,-216.78 -16.62,233.34 -17.98,232.33 "/>
    <polygon id="112" class="fil80" points="318.49,-217.12 319.85,-216.1 -15.72,234.01 -17.08,233 "/>
    <polygon id="113" class="fil80" points="319.4,-216.44 320.75,-215.43 -14.82,234.68 -16.17,233.67 "/>
    <polygon id="114" class="fil81" points="320.3,-215.77 321.66,-214.76 -13.91,235.36 -15.27,234.35 "/>
    <polygon id="115" class="fil82" points="321.21,-215.09 322.56,-214.08 -13.01,236.03 -14.36,235.02 "/>
    <polygon id="116" class="fil82" points="322.11,-214.42 323.47,-213.41 -12.1,236.71 -13.46,235.69 "/>
    <polygon id="117" class="fil83" points="323.01,-213.75 324.37,-212.73 -11.2,237.38 -12.56,236.37 "/>
    <polygon id="118" class="fil84" points="323.92,-213.07 325.27,-212.06 -10.29,238.05 -11.65,237.04 "/>
    <polygon id="119" class="fil84" points="324.82,-212.4 326.18,-211.39 -9.39,238.73 -10.75,237.72 "/>
    <polygon id="120" class="fil85" points="325.73,-211.72 327.08,-210.71 -8.49,239.4 -9.84,238.39 "/>
    <polygon id="121" class="fil85" points="326.63,-211.05 327.99,-210.04 -7.58,240.08 -8.94,239.06 "/>
    <polygon id="122" class="fil86" points="327.53,-210.38 328.89,-209.36 -6.68,240.75 -8.04,239.74 "/>
    <polygon id="123" class="fil87" points="328.44,-209.7 329.79,-208.69 -5.78,241.42 -7.13,240.41 "/>
    <polygon id="124" class="fil87" points="329.34,-209.03 330.7,-208.02 -4.87,242.1 -6.23,241.09 "/>
    <polygon id="125" class="fil88" points="330.25,-208.35 331.6,-207.34 -3.97,242.77 -5.32,241.76 "/>
    <polygon id="126" class="fil89" points="331.15,-207.68 332.51,-206.67 -3.06,243.45 -4.42,242.43 "/>
    <polygon id="127" class="fil89" points="332.05,-207.01 333.41,-205.99 -2.16,244.12 -3.52,243.11 "/>
    <polygon id="128" class="fil90" points="332.96,-206.33 334.32,-205.32 -1.25,244.79 -2.61,243.78 "/>
    <polygon id="129" class="fil91" points="333.86,-205.66 335.22,-204.65 -0.35,245.47 -1.71,244.46 "/>
    <polygon id="130" class="fil92" points="334.77,-204.98 336.12,-203.97 0.55,246.14 -0.8,245.13 "/>
    <polygon id="131" class="fil93" points="335.67,-204.31 337.03,-203.3 1.46,246.82 0.1,245.8 "/>
    <polygon id="132" class="fil94" points="336.57,-203.64 337.93,-202.62 2.36,247.49 1.01,246.48 "/>
    <polygon id="133" class="fil94" points="337.48,-202.96 338.83,-201.95 3.26,248.16 1.91,247.15 "/>
    <polygon id="134" class="fil95" points="338.38,-202.29 339.74,-201.28 4.17,248.84 2.81,247.83 "/>
    <polygon id="135" class="fil95" points="339.29,-201.61 340.64,-200.6 5.07,249.51 3.72,248.5 "/>
    <polygon id="136" class="fil96" points="340.19,-200.94 341.55,-199.93 5.98,250.19 4.62,249.17 "/>
    <polygon id="137" class="fil97" points="341.09,-200.27 342.45,-199.25 6.88,250.86 5.52,249.85 "/>
    <polygon id="138" class="fil98" points="342,-199.59 343.36,-198.58 7.79,251.53 6.43,250.52 "/>
    <polygon id="139" class="fil99" points="342.9,-198.92 344.26,-197.91 8.69,252.21 7.33,251.2 "/>
    <polygon id="140" class="fil99" points="343.81,-198.24 345.16,-197.23 9.59,252.88 8.24,251.87 "/>
    <polygon id="141" class="fil98" points="344.71,-197.57 346.07,-196.56 10.5,253.56 9.14,252.54 "/>
    <polygon id="142" class="fil97" points="345.62,-196.9 346.97,-195.88 11.4,254.23 10.05,253.22 "/>
    <polygon id="143" class="fil96" points="346.52,-196.22 347.87,-195.21 12.31,254.9 10.95,253.89 "/>
    <polygon id="144" class="fil95" points="347.42,-195.55 348.78,-194.54 13.21,255.58 11.85,254.57 "/>
    <polygon id="145" class="fil95" points="348.33,-194.87 349.68,-193.86 14.11,256.25 12.76,255.24 "/>
    <polygon id="146" class="fil94" points="349.23,-194.2 350.59,-193.19 15.02,256.93 13.66,255.91 "/>
    <polygon id="147" class="fil93" points="350.13,-193.53 351.49,-192.51 15.92,257.6 14.56,256.59 "/>
    <polygon id="148" class="fil92" points="351.04,-192.85 352.4,-191.84 16.83,258.27 15.47,257.26 "/>
    <polygon id="149" class="fil92" points="351.94,-192.18 353.3,-191.17 17.73,258.95 16.37,257.94 "/>
    <polygon id="150" class="fil90" points="352.85,-191.5 354.2,-190.49 18.63,259.62 17.28,258.61 "/>
    <polygon id="151" class="fil89" points="353.75,-190.83 355.11,-189.82 19.54,260.3 18.18,259.28 "/>
    <polygon id="152" class="fil89" points="354.66,-190.16 356.01,-189.15 20.44,260.97 19.09,259.96 "/>
    <polygon id="153" class="fil88" points="355.56,-189.48 356.92,-188.47 21.35,261.64 19.99,260.63 "/>
    <polygon id="154" class="fil87" points="356.46,-188.81 357.82,-187.8 22.25,262.32 20.89,261.31 "/>
    <polygon id="155" class="fil87" points="357.37,-188.13 358.72,-187.12 23.15,262.99 21.8,261.98 "/>
    <polygon id="156" class="fil86" points="358.27,-187.46 359.63,-186.45 24.06,263.66 22.7,262.65 "/>
    <polygon id="157" class="fil85" points="359.18,-186.79 360.53,-185.78 24.96,264.34 23.61,263.33 "/>
    <polygon id="158" class="fil85" points="360.08,-186.11 361.44,-185.1 25.87,265.01 24.51,264 "/>
    <polygon id="159" class="fil84" points="360.98,-185.44 362.34,-184.43 26.77,265.69 25.41,264.67 "/>
    <polygon id="160" class="fil83" points="361.89,-184.76 363.24,-183.75 27.67,266.36 26.32,265.35 "/>
    <polygon id="161" class="fil82" points="362.79,-184.09 364.15,-183.08 28.58,267.03 27.22,266.02 "/>
    <polygon id="162" class="fil82" points="363.7,-183.42 365.05,-182.41 29.48,267.71 28.13,266.7 "/>
    <polygon id="163" class="fil81" points="364.6,-182.74 365.96,-181.73 30.39,268.38 29.03,267.37 "/>
    <polygon id="164" class="fil80" points="365.5,-182.07 366.86,-181.06 31.29,269.06 29.93,268.04 "/>
    <polygon id="165" class="fil80" points="366.41,-181.39 367.76,-180.38 32.19,269.73 30.84,268.72 "/>
    <polygon id="166" class="fil79" points="367.31,-180.72 368.67,-179.71 33.1,270.4 31.74,269.39 "/>
    <polygon id="167" class="fil78" points="368.22,-180.05 369.57,-179.04 34,271.08 32.65,270.07 "/>
    <polygon id="168" class="fil77" points="369.12,-179.37 370.48,-178.36 34.91,271.75 33.55,270.74 "/>
    <polygon id="169" class="fil76" points="370.02,-178.7 371.38,-177.69 35.81,272.43 34.45,271.41 "/>
    <polygon id="170" class="fil75" points="370.93,-178.02 372.28,-177.01 36.71,273.1 35.36,272.09 "/>
    <polygon id="171" class="fil74" points="371.83,-177.35 373.19,-176.34 37.62,273.77 36.26,272.76 "/>
    <polygon id="172" class="fil74" points="372.74,-176.68 374.09,-175.67 38.52,274.45 37.17,273.44 "/>
    <polygon id="173" class="fil73" points="373.64,-176 375,-174.99 39.43,275.12 38.07,274.11 "/>
    <polygon id="174" class="fil72" points="374.54,-175.33 375.9,-174.32 40.33,275.8 38.97,274.78 "/>
    <polygon id="175" class="fil71" points="375.45,-174.65 376.8,-173.64 41.23,276.47 39.88,275.46 "/>
    <polygon id="176" class="fil70" points="376.35,-173.98 377.71,-172.97 42.14,277.14 40.78,276.13 "/>
    <polygon id="177" class="fil69" points="377.26,-173.31 378.61,-172.3 43.04,277.82 41.69,276.81 "/>
    <polygon id="178" class="fil68" points="378.16,-172.63 379.52,-171.62 43.95,278.49 42.59,277.48 "/>
    <polygon id="179" class="fil67" points="379.06,-171.96 380.42,-170.95 44.85,279.17 43.5,278.15 "/>
    <polygon id="180" class="fil66" points="379.97,-171.28 381.32,-170.27 45.75,279.84 44.4,278.83 "/>
    <polygon id="181" class="fil66" points="380.87,-170.61 382.23,-169.6 46.66,280.51 45.3,279.5 "/>
    <polygon id="182" class="fil65" points="381.78,-169.94 383.13,-168.93 47.56,281.19 46.21,280.18 "/>
    <polygon id="183" class="fil64" points="382.68,-169.26 384.04,-168.25 48.47,281.86 47.11,280.85 "/>
    <polygon id="184" class="fil63" points="383.58,-168.59 384.94,-167.58 49.37,282.54 48.01,281.52 "/>
    <polygon id="185" class="fil63" points="384.49,-167.91 385.84,-166.9 50.27,283.21 48.92,282.2 "/>
    <polygon id="186" class="fil61" points="385.39,-167.24 386.75,-166.23 51.18,283.88 49.82,282.87 "/>
    <polygon id="187" class="fil60" points="386.3,-166.57 387.65,-165.56 52.08,284.56 50.73,283.55 "/>
    <polygon id="188" class="fil60" points="387.2,-165.89 388.56,-164.88 52.99,285.23 51.63,284.22 "/>
    <polygon id="189" class="fil59" points="388.11,-165.22 389.46,-164.21 53.89,285.91 52.54,284.89 "/>
    <polygon id="190" class="fil58" points="389.01,-164.54 390.36,-163.53 54.8,286.58 53.44,285.57 "/>
    <polygon id="191" class="fil58" points="389.91,-163.87 391.27,-162.86 55.7,287.25 54.34,286.24 "/>
    <polygon id="192" class="fil57" points="390.82,-163.2 392.17,-162.19 56.6,287.93 55.25,286.92 "/>
    <polygon id="193" class="fil56" points="391.72,-162.52 393.08,-161.51 57.51,288.6 56.15,287.59 "/>
    <polygon id="194" class="fil100" points="392.62,-161.85 393.98,-160.84 58.41,289.28 57.05,288.26 "/>
    <polygon id="195" class="fil55" points="393.53,-161.17 394.88,-160.16 59.31,289.95 57.96,288.94 "/>
    <polygon id="196" class="fil54" points="394.43,-160.5 395.79,-159.49 60.22,290.62 58.86,289.61 "/>
    <polygon id="197" class="fil53" points="395.34,-159.83 396.69,-158.82 61.12,291.3 59.77,290.29 "/>
    <polygon id="198" class="fil53" points="396.24,-159.15 397.6,-158.14 62.03,291.97 60.67,290.96 "/>
    <polygon id="199" class="fil52" points="397.15,-158.48 398.5,-157.47 62.93,292.64 61.58,291.63 "/>
    <polygon id="200" class="fil51" points="398.05,-157.8 399.41,-156.79 63.84,293.32 62.48,292.31 "/>
    <polygon id="201" class="fil51" points="398.95,-157.13 400.31,-156.12 64.74,293.99 63.38,292.98 "/>
    <polygon id="202" class="fil50" points="399.86,-156.46 401.21,-155.45 65.64,294.67 64.29,293.66 "/>
    <polygon id="203" class="fil49" points="400.76,-155.78 402.12,-154.77 66.55,295.34 65.19,294.33 "/>
    <polygon id="204" class="fil48" points="401.67,-155.11 403.02,-154.1 67.45,296.01 66.1,295 "/>
    <polygon id="205" class="fil47" points="402.57,-154.44 403.92,-153.42 68.36,296.69 67,295.68 "/>
    <polygon id="206" class="fil46" points="403.47,-153.76 404.83,-152.75 69.26,297.36 67.9,296.35 "/>
    <polygon id="207" class="fil45" points="404.38,-153.09 405.73,-152.08 70.16,298.04 68.81,297.03 "/>
    <polygon id="208" class="fil45" points="405.28,-152.41 406.64,-151.4 71.07,298.71 69.71,297.7 "/>
    <polygon id="209" class="fil44" points="406.19,-151.74 407.54,-150.73 71.97,299.38 70.62,298.37 "/>
    <polygon id="210" class="fil43" points="407.09,-151.07 408.45,-150.05 72.88,300.06 71.52,299.05 "/>
    <polygon id="211" class="fil42" points="407.99,-150.39 409.35,-149.38 73.78,300.73 72.42,299.72 "/>
    <polygon id="212" class="fil41" points="408.9,-149.72 410.25,-148.71 74.68,301.41 73.33,300.4 "/>
    <polygon id="213" class="fil40" points="409.8,-149.04 411.16,-148.03 75.59,302.08 74.23,301.07 "/>
    <polygon id="214" class="fil39" points="410.71,-148.37 412.06,-147.36 76.49,302.75 75.14,301.74 "/>
    <polygon id="215" class="fil38" points="411.61,-147.7 412.97,-146.68 77.4,303.43 76.04,302.42 "/>
    <polygon id="216" class="fil37" points="412.51,-147.02 413.87,-146.01 78.3,304.1 76.94,303.09 "/>
    <polygon id="217" class="fil37" points="413.42,-146.35 414.77,-145.34 79.2,304.78 77.85,303.77 "/>
    <polygon id="218" class="fil36" points="414.32,-145.67 415.68,-144.66 80.11,305.45 78.75,304.44 "/>
    <polygon id="219" class="fil35" points="415.23,-145 416.58,-143.99 81.01,306.12 79.66,305.11 "/>
    <polygon id="220" class="fil34" points="416.13,-144.33 417.49,-143.31 81.92,306.8 80.56,305.79 "/>
    <polygon id="221" class="fil34" points="417.03,-143.65 418.39,-142.64 82.82,307.47 81.46,306.46 "/>
    <polygon id="222" class="fil32" points="417.94,-142.98 419.29,-141.97 83.72,308.15 82.37,307.14 "/>
    <polygon id="223" class="fil31" points="418.84,-142.3 420.2,-141.29 84.63,308.82 83.27,307.81 "/>
    <polygon id="224" class="fil31" points="419.75,-141.63 421.1,-140.62 85.53,309.49 84.18,308.48 "/>
    <polygon id="225" class="fil30" points="420.65,-140.96 422.01,-139.94 86.44,310.17 85.08,309.16 "/>
    <polygon id="226" class="fil29" points="421.55,-140.28 422.91,-139.27 87.34,310.84 85.98,309.83 "/>
    <polygon id="227" class="fil29" points="422.46,-139.61 423.81,-138.6 88.24,311.52 86.89,310.51 "/>
    <polygon id="228" class="fil28" points="423.36,-138.93 424.72,-137.92 89.15,312.19 87.79,311.18 "/>
    <polygon id="229" class="fil27" points="424.27,-138.26 425.62,-137.25 90.05,312.86 88.7,311.85 "/>
    <polygon id="230" class="fil26" points="425.17,-137.59 426.53,-136.57 90.96,313.54 89.6,312.53 "/>
    <polygon id="231" class="fil26" points="426.07,-136.91 427.43,-135.9 91.86,314.21 90.5,313.2 "/>
    <polygon id="232" class="fil25" points="426.98,-136.24 428.33,-135.23 92.76,314.89 91.41,313.88 "/>
    <polygon id="233" class="fil24" points="427.88,-135.56 429.24,-134.55 93.67,315.56 92.31,314.55 "/>
    <polygon id="234" class="fil24" points="428.79,-134.89 430.14,-133.88 94.57,316.23 93.22,315.22 "/>
    <polygon id="235" class="fil23" points="429.69,-134.22 431.05,-133.2 95.48,316.91 94.12,315.9 "/>
    <polygon id="236" class="fil22" points="430.59,-133.54 431.95,-132.53 96.38,317.58 95.02,316.57 "/>
    <polygon id="237" class="fil22" points="431.5,-132.87 432.85,-131.86 97.29,318.26 95.93,317.25 "/>
    <polygon id="238" class="fil21" points="432.4,-132.19 433.76,-131.18 98.19,318.93 96.83,317.92 "/>
    <polygon id="239" class="fil20" points="433.31,-131.52 434.66,-130.51 99.09,319.6 97.74,318.59 "/>
    <polygon id="240" class="fil19" points="434.21,-130.85 435.57,-129.83 100,320.28 98.64,319.27 "/>
    <polygon id="241" class="fil18" points="435.11,-130.17 436.47,-129.16 100.9,320.95 99.54,319.94 "/>
    <polygon id="242" class="fil17" points="436.02,-129.5 437.37,-128.49 101.8,321.63 100.45,320.62 "/>
    <polygon id="243" class="fil16" points="436.92,-128.82 438.28,-127.81 102.71,322.3 101.35,321.29 "/>
    <polygon id="244" class="fil16" points="437.83,-128.15 439.18,-127.14 103.61,322.97 102.26,321.96 "/>
    <polygon id="245" class="fil15" points="438.73,-127.48 440.09,-126.46 104.52,323.65 103.16,322.64 "/>
    <polygon id="246" class="fil14" points="439.63,-126.8 440.99,-125.79 105.42,324.32 104.06,323.31 "/>
    <polygon id="247" class="fil13" points="440.54,-126.13 441.9,-125.12 106.33,325 104.97,323.99 "/>
    <polygon id="248" class="fil12" points="441.44,-125.45 442.8,-124.44 107.23,325.67 105.87,324.66 "/>
    <polygon id="249" class="fil11" points="442.35,-124.78 443.7,-123.77 108.13,326.34 106.78,325.33 "/>
    <polygon id="250" class="fil10" points="443.25,-124.11 444.61,-123.09 109.04,327.02 107.68,326.01 "/>
    <polygon id="251" class="fil9" points="444.15,-123.43 445.51,-122.42 109.94,327.69 108.59,326.68 "/>
    <polygon id="252" class="fil8" points="445.06,-122.76 446.41,-121.75 110.85,328.37 109.49,327.35 "/>
    <polygon id="253" class="fil8" points="445.96,-122.08 447.32,-121.07 111.75,329.04 110.39,328.03 "/>
    <polygon id="254" class="fil7" points="446.87,-121.41 448.22,-120.4 112.65,329.71 111.3,328.7 "/>
    <polygon id="255" class="fil6" points="447.77,-120.74 449.13,-119.73 113.56,330.39 112.2,329.38 "/>
    <polygon id="256" class="fil0" points="448.67,-120.06 450.03,-119.05 114.46,331.06 113.1,330.05 "/>
    <polygon id="257" class="fil0" points="449.58,-119.39 450.94,-118.38 115.37,331.74 114.01,330.72 "/>
    <polygon id="258" class="fil1" points="450.48,-118.71 451.84,-117.7 116.27,332.41 114.91,331.4 "/>
    <polygon id="259" class="fil2" points="451.39,-118.04 452.74,-117.03 117.17,333.08 115.82,332.07 "/>
    <polygon id="260" class="fil2" points="452.29,-117.37 453.65,-116.36 118.08,333.76 116.72,332.75 "/>
    <polygon id="261" class="fil3" points="453.2,-116.69 454.55,-115.68 118.98,334.43 117.63,333.42 "/>
    <polygon id="262" class="fil4" points="454.1,-116.02 455.46,-115.01 119.89,335.11 118.53,334.09 "/>
    <polygon id="263" class="fil4" points="455,-115.34 456.36,-114.33 120.79,335.78 119.43,334.77 "/>
    <polygon id="264" class="fil3" points="455.91,-114.67 457.26,-113.66 121.69,336.45 120.34,335.44 "/>
    <polygon id="265" class="fil2" points="456.81,-114 458.17,-112.99 122.6,337.13 121.24,336.12 "/>
    <polygon id="266" class="fil2" points="457.71,-113.32 459.07,-112.31 123.5,337.8 122.15,336.79 "/>
    <polygon id="267" class="fil1" points="458.62,-112.65 459.98,-111.64 124.41,338.48 123.05,337.46 "/>
    <polygon id="268" class="fil5" points="459.52,-111.97 460.88,-110.96 125.31,339.15 123.95,338.14 "/>
    <polygon id="269" class="fil0" points="460.43,-111.3 461.78,-110.29 126.21,339.82 124.86,338.81 "/>
    <polygon id="270" class="fil6" points="461.33,-110.63 462.69,-109.62 127.12,340.5 125.76,339.49 "/>
    <polygon id="271" class="fil7" points="462.24,-109.95 463.59,-108.94 128.02,341.17 126.67,340.16 "/>
    <polygon id="272" class="fil7" points="463.14,-109.28 464.5,-108.27 128.93,341.85 127.57,340.83 "/>
    <polygon id="273" class="fil8" points="464.04,-108.6 465.4,-107.59 129.83,342.52 128.47,341.51 "/>
    <polygon id="274" class="fil8" points="464.95,-107.93 466.3,-106.92 130.73,343.19 129.38,342.18 "/>
    <polygon id="275" class="fil9" points="465.85,-107.26 467.21,-106.25 131.64,343.87 130.28,342.86 "/>
    <polygon id="276" class="fil10" points="466.76,-106.58 468.11,-105.57 132.54,344.54 131.19,343.53 "/>
    <polygon id="277" class="fil11" points="467.66,-105.91 469.02,-104.9 133.45,345.22 132.09,344.2 "/>
    <polygon id="278" class="fil12" points="468.56,-105.23 469.92,-104.22 134.35,345.89 132.99,344.88 "/>
    <polygon id="279" class="fil13" points="469.47,-104.56 470.82,-103.55 135.25,346.56 133.9,345.55 "/>
    <polygon id="280" class="fil14" points="470.37,-103.89 471.73,-102.88 136.16,347.24 134.8,346.23 "/>
    <polygon id="281" class="fil15" points="471.28,-103.21 472.63,-102.2 137.06,347.91 135.71,346.9 "/>
    <polygon id="282" class="fil16" points="472.18,-102.54 473.54,-101.53 137.97,348.59 136.61,347.57 "/>
    <polygon id="283" class="fil16" points="473.08,-101.86 474.44,-100.85 138.87,349.26 137.51,348.25 "/>
    <polygon id="284" class="fil17" points="473.99,-101.19 475.34,-100.18 139.78,349.93 138.42,348.92 "/>
    <polygon id="285" class="fil17" points="474.89,-100.52 476.25,-99.51 140.68,350.61 139.32,349.6 "/>
    <polygon id="286" class="fil18" points="475.8,-99.84 477.15,-98.83 141.58,351.28 140.23,350.27 "/>
    <polygon id="287" class="fil19" points="476.7,-99.17 478.06,-98.16 142.49,351.96 141.13,350.94 "/>
    <polygon id="288" class="fil20" points="477.6,-98.49 478.96,-97.48 143.39,352.63 142.03,351.62 "/>
    <polygon id="289" class="fil21" points="478.51,-97.82 479.86,-96.81 144.29,353.3 142.94,352.29 "/>
    <polygon id="290" class="fil22" points="479.41,-97.15 480.77,-96.14 145.2,353.98 143.84,352.97 "/>
    <polygon id="291" class="fil22" points="480.32,-96.47 481.67,-95.46 146.1,354.65 144.75,353.64 "/>
    <polygon id="292" class="fil23" points="481.22,-95.8 482.58,-94.79 147.01,355.33 145.65,354.31 "/>
    <polygon id="293" class="fil24" points="482.12,-95.12 483.48,-94.11 147.91,356 146.55,354.99 "/>
    <polygon id="294" class="fil24" points="483.03,-94.45 484.39,-93.44 148.82,356.67 147.46,355.66 "/>
    <polygon id="295" class="fil25" points="483.93,-93.78 485.29,-92.77 149.72,357.35 148.36,356.34 "/>
    <polygon id="296" class="fil26" points="484.84,-93.1 486.19,-92.09 150.62,358.02 149.27,357.01 "/>
    <polygon id="297" class="fil26" points="485.74,-92.43 487.1,-91.42 151.53,358.7 150.17,357.68 "/>
    <polygon id="298" class="fil27" points="486.64,-91.75 488,-90.74 152.43,359.37 151.08,358.36 "/>
    <polygon id="299" class="fil27" points="487.55,-91.08 488.9,-90.07 153.34,360.04 151.98,359.03 "/>
    <polygon id="300" class="fil28" points="488.45,-90.41 489.81,-89.4 154.24,360.72 152.88,359.71 "/>
    <polygon id="301" class="fil29" points="489.36,-89.73 490.71,-88.72 155.14,361.39 153.79,360.38 "/>
    <polygon id="302" class="fil29" points="490.26,-89.06 491.62,-88.05 156.05,362.06 154.69,361.05 "/>
    <polygon id="303" class="fil30" points="491.16,-88.38 492.52,-87.37 156.95,362.74 155.59,361.73 "/>
    <polygon id="304" class="fil31" points="492.07,-87.71 493.43,-86.7 157.86,363.41 156.5,362.4 "/>
    <polygon id="305" class="fil31" points="492.97,-87.04 494.33,-86.03 158.76,364.09 157.4,363.08 "/>
    <polygon id="306" class="fil32" points="493.88,-86.36 495.23,-85.35 159.66,364.76 158.31,363.75 "/>
    <polygon id="307" class="fil33" points="494.78,-85.69 496.14,-84.68 160.57,365.43 159.21,364.42 "/>
    <polygon id="308" class="fil34" points="495.69,-85.01 497.04,-84 161.47,366.11 160.12,365.1 "/>
    <polygon id="309" class="fil35" points="496.59,-84.34 497.95,-83.33 162.38,366.78 161.02,365.77 "/>
    <polygon id="310" class="fil36" points="497.49,-83.67 498.85,-82.66 163.28,367.46 161.92,366.45 "/>
    <polygon id="311" class="fil36" points="498.4,-82.99 499.75,-81.98 164.18,368.13 162.83,367.12 "/>
    <polygon id="312" class="fil37" points="499.3,-82.32 500.66,-81.31 165.09,368.8 163.73,367.79 "/>
    <polygon id="313" class="fil37" points="500.2,-81.65 501.56,-80.63 165.99,369.48 164.64,368.47 "/>
    <polygon id="314" class="fil38" points="501.11,-80.97 502.47,-79.96 166.89,370.15 165.54,369.14 "/>
    <polygon id="315" class="fil39" points="502.01,-80.3 503.37,-79.29 167.8,370.83 166.44,369.82 "/>
    <polygon id="316" class="fil40" points="502.92,-79.62 504.27,-78.61 168.7,371.5 167.35,370.49 "/>
    <polygon id="317" class="fil41" points="503.82,-78.95 505.18,-77.94 169.61,372.17 168.25,371.16 "/>
    <polygon id="318" class="fil42" points="504.73,-78.28 506.08,-77.26 170.51,372.85 169.16,371.84 "/>
    <polygon id="319" class="fil43" points="505.63,-77.6 506.99,-76.59 171.42,373.52 170.06,372.51 "/>
    <polygon id="320" class="fil44" points="506.53,-76.93 507.89,-75.92 172.32,374.2 170.96,373.19 "/>
    <polygon id="321" class="fil45" points="507.44,-76.25 508.79,-75.24 173.22,374.87 171.87,373.86 "/>
    <polygon id="322" class="fil45" points="508.34,-75.58 509.7,-74.57 174.13,375.54 172.77,374.53 "/>
    <polygon id="323" class="fil46" points="509.25,-74.91 510.6,-73.89 175.03,376.22 173.68,375.21 "/>
    <polygon id="324" class="fil46" points="510.15,-74.23 511.5,-73.22 175.94,376.89 174.58,375.88 "/>
    <polygon id="325" class="fil47" points="511.05,-73.56 512.41,-72.55 176.84,377.57 175.48,376.56 "/>
    <polygon id="326" class="fil48" points="511.96,-72.88 513.31,-71.87 177.74,378.24 176.39,377.23 "/>
    <polygon id="327" class="fil49" points="512.86,-72.21 514.22,-71.2 178.65,378.91 177.29,377.9 "/>
    <polygon id="328" class="fil50" points="513.77,-71.54 515.12,-70.52 179.55,379.59 178.2,378.58 "/>
    <polygon id="329" class="fil51" points="514.67,-70.86 516.03,-69.85 180.46,380.26 179.1,379.25 "/>
    <polygon id="330" class="fil51" points="515.57,-70.19 516.93,-69.18 181.36,380.94 180,379.93 "/>
    <polygon id="331" class="fil52" points="516.48,-69.51 517.83,-68.5 182.26,381.61 180.91,380.6 "/>
    <polygon id="332" class="fil53" points="517.38,-68.84 518.74,-67.83 183.17,382.28 181.81,381.27 "/>
    <polygon id="333" class="fil53" points="518.29,-68.17 519.64,-67.15 184.07,382.96 182.72,381.95 "/>
    <polygon id="334" class="fil54" points="519.19,-67.49 520.55,-66.48 184.98,383.63 183.62,382.62 "/>
    <polygon id="335" class="fil55" points="520.09,-66.82 521.45,-65.81 185.88,384.31 184.52,383.3 "/>
    <polygon id="336" class="fil55" points="521,-66.14 522.35,-65.13 186.78,384.98 185.43,383.97 "/>
    <polygon id="337" class="fil56" points="521.9,-65.47 523.26,-64.46 187.69,385.65 186.33,384.64 "/>
    <polygon id="338" class="fil56" points="522.81,-64.8 524.16,-63.78 188.59,386.33 187.24,385.32 "/>
    <polygon id="339" class="fil57" points="523.71,-64.12 525.07,-63.11 189.5,387 188.14,385.99 "/>
    <polygon id="340" class="fil58" points="524.61,-63.45 525.97,-62.44 190.4,387.68 189.04,386.67 "/>
    <polygon id="341" class="fil58" points="525.52,-62.77 526.87,-61.76 191.3,388.35 189.95,387.34 "/>
    <polygon id="342" class="fil59" points="526.42,-62.1 527.78,-61.09 192.21,389.02 190.85,388.01 "/>
    <polygon id="343" class="fil60" points="527.33,-61.43 528.68,-60.41 193.11,389.7 191.76,388.69 "/>
    <polygon id="344" class="fil60" points="528.23,-60.75 529.59,-59.74 194.02,390.37 192.66,389.36 "/>
    <polygon id="345" class="fil61" points="529.13,-60.08 530.49,-59.07 194.92,391.05 193.57,390.04 "/>
    <polygon id="346" class="fil62" points="530.04,-59.4 531.39,-58.39 195.83,391.72 194.47,390.71 "/>
    <polygon id="347" class="fil63" points="530.94,-58.73 532.3,-57.72 196.73,392.39 195.37,391.38 "/>
    <polygon id="348" class="fil64" points="531.85,-58.06 533.2,-57.04 197.63,393.07 196.28,392.06 "/>
    <polygon id="349" class="fil65" points="532.75,-57.38 534.11,-56.37 198.54,393.74 197.18,392.73 "/>
    <polygon id="350" class="fil65" points="533.65,-56.71 535.01,-55.7 199.44,394.42 198.08,393.41 "/>
    <polygon id="351" class="fil66" points="534.56,-56.03 535.91,-55.02 200.34,395.09 198.99,394.08 "/>
    <polygon id="352" class="fil66" points="535.46,-55.36 536.82,-54.35 201.25,395.76 199.89,394.75 "/>
    <polygon id="353" class="fil67" points="536.37,-54.69 537.72,-53.67 202.15,396.44 200.8,395.43 "/>
    <polygon id="354" class="fil68" points="537.27,-54.01 538.63,-53 203.06,397.11 201.7,396.1 "/>
    <polygon id="355" class="fil69" points="538.18,-53.34 539.53,-52.33 203.96,397.79 202.61,396.78 "/>
    <polygon id="356" class="fil70" points="539.08,-52.66 540.44,-51.65 204.87,398.46 203.51,397.45 "/>
    <polygon id="357" class="fil71" points="539.98,-51.99 541.34,-50.98 205.77,399.13 204.41,398.12 "/>
    <polygon id="358" class="fil72" points="540.89,-51.32 542.24,-50.3 206.67,399.81 205.32,398.8 "/>
    <polygon id="359" class="fil73" points="541.79,-50.64 543.15,-49.63 207.58,400.48 206.22,399.47 "/>
    <polygon id="360" class="fil74" points="542.69,-49.97 544.05,-48.96 208.48,401.16 207.13,400.14 "/>
    <polygon id="361" class="fil74" points="543.6,-49.29 544.95,-48.28 209.38,401.83 208.03,400.82 "/>
    <polygon id="362" class="fil75" points="544.5,-48.62 545.86,-47.61 210.29,402.5 208.93,401.49 "/>
    <polygon id="363" class="fil75" points="545.41,-47.95 546.76,-46.94 211.19,403.18 209.84,402.17 "/>
    <polygon id="364" class="fil76" points="546.31,-47.27 547.67,-46.26 212.1,403.85 210.74,402.84 "/>
    <polygon id="365" class="fil77" points="547.22,-46.6 548.57,-45.59 213,404.53 211.65,403.51 "/>
    <polygon id="366" class="fil78" points="548.12,-45.92 549.48,-44.91 213.91,405.2 212.55,404.19 "/>
    <polygon id="367" class="fil79" points="549.02,-45.25 550.38,-44.24 214.81,405.87 213.45,404.86 "/>
    <polygon id="368" class="fil80" points="549.93,-44.58 551.28,-43.57 215.71,406.55 214.36,405.54 "/>
    <polygon id="369" class="fil80" points="550.83,-43.9 552.19,-42.89 216.62,407.22 215.26,406.21 "/>
    <polygon id="370" class="fil81" points="551.74,-43.23 553.09,-42.22 217.52,407.9 216.17,406.88 "/>
    <polygon id="371" class="fil82" points="552.64,-42.55 553.99,-41.54 218.43,408.57 217.07,407.56 "/>
    <polygon id="372" class="fil82" points="553.54,-41.88 554.9,-40.87 219.33,409.24 217.97,408.23 "/>
    <polygon id="373" class="fil83" points="554.45,-41.21 555.8,-40.2 220.23,409.92 218.88,408.91 "/>
    <polygon id="374" class="fil84" points="555.35,-40.53 556.71,-39.52 221.14,410.59 219.78,409.58 "/>
    <polygon id="375" class="fil84" points="556.26,-39.86 557.61,-38.85 222.04,411.27 220.69,410.25 "/>
    <polygon id="376" class="fil85" points="557.16,-39.18 558.52,-38.17 222.95,411.94 221.59,410.93 "/>
    <polygon id="377" class="fil85" points="558.06,-38.51 559.42,-37.5 223.85,412.61 222.49,411.6 "/>
    <polygon id="378" class="fil86" points="558.97,-37.84 560.32,-36.83 224.75,413.29 223.4,412.28 "/>
    <polygon id="379" class="fil87" points="559.87,-37.16 561.23,-36.15 225.66,413.96 224.3,412.95 "/>
    <polygon id="380" class="fil87" points="560.78,-36.49 562.13,-35.48 226.56,414.64 225.21,413.62 "/>
    <polygon id="381" class="fil88" points="561.68,-35.81 563.04,-34.8 227.47,415.31 226.11,414.3 "/>
    <polygon id="382" class="fil89" points="562.58,-35.14 563.94,-34.13 228.37,415.98 227.01,414.97 "/>
    <polygon id="383" class="fil89" points="563.49,-34.47 564.84,-33.46 229.27,416.66 227.92,415.65 "/>
    <polygon id="384" class="fil90" points="564.39,-33.79 565.75,-32.78 230.18,417.33 228.82,416.32 "/>
    <polygon id="385" class="fil91" points="565.3,-33.12 566.65,-32.11 231.08,418.01 229.73,416.99 "/>
    <polygon id="386" class="fil92" points="566.2,-32.44 567.56,-31.43 231.99,418.68 230.63,417.67 "/>
    <polygon id="387" class="fil93" points="567.1,-31.77 568.46,-30.76 232.89,419.35 231.53,418.34 "/>
    <polygon id="388" class="fil94" points="568.01,-31.1 569.36,-30.09 233.79,420.03 232.44,419.02 "/>
    <polygon id="389" class="fil94" points="568.91,-30.42 570.27,-29.41 234.7,420.7 233.34,419.69 "/>
    <polygon id="390" class="fil95" points="569.82,-29.75 571.17,-28.74 235.6,421.38 234.25,420.36 "/>
    <polygon id="391" class="fil95" points="570.72,-29.07 572.08,-28.06 236.51,422.05 235.15,421.04 "/>
    <polygon id="392" class="fil96" points="571.62,-28.4 572.98,-27.39 237.41,422.72 236.05,421.71 "/>
    <polygon id="393" class="fil97" points="572.53,-27.73 573.88,-26.72 238.32,423.4 236.96,422.39 "/>
    <polygon id="394" class="fil98" points="573.43,-27.05 574.79,-26.04 239.22,424.07 237.86,423.06 "/>
    <polygon id="395" class="fil99" points="574.34,-26.38 575.69,-25.37 240.12,424.75 238.77,423.73 "/>
    <polygon id="396" class="fil99" points="575.24,-25.7 576.6,-24.69 241.03,425.42 239.67,424.41 "/>
    <polygon id="397" class="fil98" points="576.14,-25.03 577.5,-24.02 241.93,426.09 240.57,425.08 "/>
    <polygon id="398" class="fil97" points="577.05,-24.36 578.4,-23.35 242.83,426.77 241.48,425.76 "/>
    <polygon id="399" class="fil96" points="577.95,-23.68 579.31,-22.67 243.74,427.44 242.38,426.43 "/>
    <polygon id="400" class="fil95" points="578.86,-23.01 580.21,-22 244.64,428.12 243.29,427.1 "/>
    <polygon id="401" class="fil95" points="579.76,-22.33 581.12,-21.32 245.55,428.79 244.19,427.78 "/>
    <polygon id="402" class="fil94" points="580.66,-21.66 582.02,-20.65 246.45,429.46 245.09,428.45 "/>
    <polygon id="403" class="fil93" points="581.57,-20.99 582.93,-19.98 247.36,430.14 246,429.13 "/>
    <polygon id="404" class="fil92" points="582.47,-20.31 583.83,-19.3 248.26,430.81 246.9,429.8 "/>
    <polygon id="405" class="fil92" points="583.38,-19.64 584.73,-18.63 249.16,431.49 247.81,430.47 "/>
    <polygon id="406" class="fil90" points="584.28,-18.96 585.64,-17.95 250.07,432.16 248.71,431.15 "/>
    <polygon id="407" class="fil89" points="585.18,-18.29 586.54,-17.28 250.97,432.83 249.62,431.82 "/>
    <polygon id="408" class="fil89" points="586.09,-17.62 587.44,-16.61 251.87,433.51 250.52,432.5 "/>
    <polygon id="409" class="fil88" points="586.99,-16.94 588.35,-15.93 252.78,434.18 251.42,433.17 "/>
    <polygon id="410" class="fil87" points="587.9,-16.27 589.25,-15.26 253.68,434.85 252.33,433.84 "/>
    <polygon id="411" class="fil87" points="588.8,-15.59 590.16,-14.58 254.59,435.53 253.23,434.52 "/>
    <polygon id="412" class="fil86" points="589.7,-14.92 591.06,-13.91 255.49,436.2 254.13,435.19 "/>
    <polygon id="413" class="fil85" points="590.61,-14.25 591.97,-13.24 256.4,436.88 255.04,435.87 "/>
    <polygon id="414" class="fil85" points="591.51,-13.57 592.87,-12.56 257.3,437.55 255.94,436.54 "/>
    <polygon id="415" class="fil84" points="592.42,-12.9 593.77,-11.89 258.2,438.22 256.85,437.21 "/>
    <polygon id="416" class="fil83" points="593.32,-12.23 594.68,-11.21 259.11,438.9 257.75,437.89 "/>
    <polygon id="417" class="fil82" points="594.23,-11.55 595.58,-10.54 260.01,439.57 258.66,438.56 "/>
    <polygon id="418" class="fil82" points="595.13,-10.88 596.48,-9.87 260.92,440.25 259.56,439.24 "/>
    <polygon id="419" class="fil81" points="596.03,-10.2 597.39,-9.19 261.82,440.92 260.46,439.91 "/>
    <polygon id="420" class="fil80" points="596.94,-9.53 598.29,-8.52 262.72,441.59 261.37,440.58 "/>
    <polygon id="421" class="fil80" points="597.84,-8.86 599.2,-7.84 263.63,442.27 262.27,441.26 "/>
    <polygon id="422" class="fil79" points="598.74,-8.18 600.1,-7.17 264.53,442.94 263.18,441.93 "/>
    <polygon id="423" class="fil78" points="599.65,-7.51 601.01,-6.5 265.44,443.62 264.08,442.61 "/>
    <polygon id="424" class="fil77" points="600.55,-6.83 601.91,-5.82 266.34,444.29 264.98,443.28 "/>
    <polygon id="425" class="fil76" points="601.46,-6.16 602.81,-5.15 267.24,444.96 265.89,443.95 "/>
    <polygon id="426" class="fil75" points="602.36,-5.49 603.72,-4.47 268.15,445.64 266.79,444.63 "/>
    <polygon id="427" class="fil74" points="603.27,-4.81 604.62,-3.8 269.05,446.31 267.7,445.3 "/>
    <polygon id="428" class="fil74" points="604.17,-4.14 605.53,-3.13 269.96,446.99 268.6,445.98 "/>
    <polygon id="429" class="fil73" points="605.07,-3.46 606.43,-2.45 270.86,447.66 269.5,446.65 "/>
    <polygon id="430" class="fil72" points="605.98,-2.79 607.33,-1.78 271.76,448.33 270.41,447.32 "/>
    <polygon id="431" class="fil71" points="606.88,-2.12 608.24,-1.1 272.67,449.01 271.31,448 "/>
    <polygon id="432" class="fil70" points="607.79,-1.44 609.14,-0.43 273.57,449.68 272.22,448.67 "/>
    <polygon id="433" class="fil69" points="608.69,-0.77 610.05,0.24 274.48,450.36 273.12,449.35 "/>
    <polygon id="434" class="fil68" points="609.59,-0.09 610.95,0.92 275.38,451.03 274.02,450.02 "/>
    <polygon id="435" class="fil67" points="610.5,0.58 611.85,1.59 276.28,451.7 274.93,450.69 "/>
    <polygon id="436" class="fil66" points="611.4,1.25 612.76,2.27 277.19,452.38 275.83,451.37 "/>
    <polygon id="437" class="fil66" points="612.31,1.93 613.66,2.94 278.09,453.05 276.74,452.04 "/>
    <polygon id="438" class="fil65" points="613.21,2.6 614.57,3.61 279,453.73 277.64,452.72 "/>
    <polygon id="439" class="fil64" points="614.11,3.28 615.47,4.29 279.9,454.4 278.54,453.39 "/>
    <polygon id="440" class="fil63" points="615.02,3.95 616.37,4.96 280.81,455.07 279.45,454.06 "/>
    <polygon id="441" class="fil63" points="615.92,4.62 617.28,5.64 281.71,455.75 280.35,454.74 "/>
    <polygon id="442" class="fil61" points="616.83,5.3 618.18,6.31 282.61,456.42 281.26,455.41 "/>
    <polygon id="443" class="fil60" points="617.73,5.97 619.09,6.98 283.52,457.1 282.16,456.09 "/>
    <polygon id="444" class="fil60" points="618.63,6.65 619.99,7.66 284.42,457.77 283.06,456.76 "/>
    <polygon id="445" class="fil59" points="619.54,7.32 620.89,8.33 285.32,458.44 283.97,457.43 "/>
    <polygon id="446" class="fil58" points="620.44,7.99 621.8,9.01 286.23,459.12 284.87,458.11 "/>
    <polygon id="447" class="fil58" points="621.35,8.67 622.7,9.68 287.13,459.79 285.78,458.78 "/>
    <polygon id="448" class="fil57" points="622.25,9.34 623.61,10.35 288.04,460.47 286.68,459.46 "/>
    <polygon id="449" class="fil56" points="623.15,10.02 624.51,11.03 288.94,461.14 287.58,460.13 "/>
    <polygon id="450" class="fil100" points="624.06,10.69 625.42,11.7 289.84,461.81 288.49,460.8 "/>
    <polygon id="451" class="fil55" points="624.96,11.36 626.32,12.38 290.75,462.49 289.39,461.48 "/>
    <polygon id="452" class="fil54" points="625.87,12.04 627.22,13.05 291.65,463.16 290.3,462.15 "/>
    <polygon id="453" class="fil53" points="626.77,12.71 628.13,13.72 292.56,463.84 291.2,462.83 "/>
    <polygon id="454" class="fil53" points="627.67,13.39 629.03,14.4 293.46,464.51 292.11,463.5 "/>
    <polygon id="455" class="fil52" points="628.58,14.06 629.93,15.07 294.36,465.18 293.01,464.17 "/>
    <polygon id="456" class="fil51" points="629.48,14.73 630.84,15.75 295.27,465.86 293.91,464.85 "/>
    <polygon id="457" class="fil51" points="630.39,15.41 631.74,16.42 296.17,466.53 294.82,465.52 "/>
    <polygon id="458" class="fil50" points="631.29,16.08 632.65,17.09 297.08,467.21 295.72,466.2 "/>
    <polygon id="459" class="fil49" points="632.19,16.76 633.55,17.77 297.98,467.88 296.62,466.87 "/>
    <polygon id="460" class="fil48" points="633.1,17.43 634.45,18.44 298.88,468.55 297.53,467.54 "/>
    <polygon id="461" class="fil47" points="634,18.1 635.36,19.12 299.79,469.23 298.43,468.22 "/>
    <polygon id="462" class="fil46" points="634.91,18.78 636.26,19.79 300.69,469.9 299.34,468.89 "/>
    <polygon id="463" class="fil45" points="635.81,19.45 637.17,20.46 301.6,470.58 300.24,469.56 "/>
    <polygon id="464" class="fil45" points="636.72,20.13 638.07,21.14 302.5,471.25 301.15,470.24 "/>
    <polygon id="465" class="fil44" points="637.62,20.8 638.97,21.81 303.41,471.92 302.05,470.91 "/>
    <polygon id="466" class="fil43" points="638.52,21.47 639.88,22.49 304.31,472.6 302.95,471.59 "/>
    <polygon id="467" class="fil42" points="639.43,22.15 640.78,23.16 305.21,473.27 303.86,472.26 "/>
    <polygon id="468" class="fil41" points="640.33,22.82 641.69,23.83 306.12,473.95 304.76,472.93 "/>
    <polygon id="469" class="fil40" points="641.23,23.5 642.59,24.51 307.02,474.62 305.67,473.61 "/>
    <polygon id="470" class="fil39" points="642.14,24.17 643.49,25.18 307.92,475.29 306.57,474.28 "/>
    <polygon id="471" class="fil38" points="643.04,24.84 644.4,25.85 308.83,475.97 307.47,474.96 "/>
    <polygon id="472" class="fil37" points="643.95,25.52 645.3,26.53 309.73,476.64 308.38,475.63 "/>
    <polygon id="473" class="fil37" points="644.85,26.19 646.21,27.2 310.64,477.32 309.28,476.3 "/>
    <polygon id="474" class="fil36" points="645.76,26.87 647.11,27.88 311.54,477.99 310.19,476.98 "/>
    <polygon id="475" class="fil35" points="646.66,27.54 648.02,28.55 312.45,478.66 311.09,477.65 "/>
    <polygon id="476" class="fil34" points="647.56,28.21 648.92,29.22 313.35,479.34 311.99,478.33 "/>
    <polygon id="477" class="fil34" points="648.47,28.89 649.82,29.9 314.25,480.01 312.9,479 "/>
    <polygon id="478" class="fil32" points="649.37,29.56 650.73,30.57 315.16,480.69 313.8,479.67 "/>
    <polygon id="479" class="fil31" points="650.28,30.24 651.63,31.25 316.06,481.36 314.71,480.35 "/>
    <polygon id="480" class="fil31" points="651.18,30.91 652.53,31.92 316.97,482.03 315.61,481.02 "/>
    <polygon id="481" class="fil30" points="652.08,31.58 653.44,32.59 317.87,482.71 316.51,481.7 "/>
    <polygon id="482" class="fil29" points="652.99,32.26 654.34,33.27 318.77,483.38 317.42,482.37 "/>
    <polygon id="483" class="fil29" points="653.89,32.93 655.25,33.94 319.68,484.06 318.32,483.04 "/>
    <polygon id="484" class="fil28" points="654.8,33.61 656.15,34.62 320.58,484.73 319.23,483.72 "/>
    <polygon id="485" class="fil27" points="655.7,34.28 657.06,35.29 321.49,485.4 320.13,484.39 "/>
    <polygon id="486" class="fil26" points="656.6,34.95 657.96,35.96 322.39,486.08 321.03,485.07 "/>
    <polygon id="487" class="fil26" points="657.51,35.63 658.86,36.64 323.29,486.75 321.94,485.74 "/>
    <polygon id="488" class="fil25" points="658.41,36.3 659.77,37.31 324.2,487.43 322.84,486.41 "/>
    <polygon id="489" class="fil24" points="659.32,36.98 660.67,37.99 325.1,488.1 323.75,487.09 "/>
    <polygon id="490" class="fil24" points="660.22,37.65 661.58,38.66 326.01,488.77 324.65,487.76 "/>
    <polygon id="491" class="fil23" points="661.12,38.32 662.48,39.33 326.91,489.45 325.55,488.44 "/>
    <polygon id="492" class="fil22" points="662.03,39 663.38,40.01 327.81,490.12 326.46,489.11 "/>
    <polygon id="493" class="fil22" points="662.93,39.67 664.29,40.68 328.72,490.8 327.36,489.78 "/>
    <polygon id="494" class="fil21" points="663.84,40.35 665.19,41.36 329.62,491.47 328.27,490.46 "/>
    <polygon id="495" class="fil20" points="664.74,41.02 666.1,42.03 330.53,492.14 329.17,491.13 "/>
    <polygon id="496" class="fil19" points="665.64,41.69 667,42.7 331.43,492.82 330.07,491.81 "/>
    <polygon id="497" class="fil18" points="666.55,42.37 667.9,43.38 332.33,493.49 330.98,492.48 "/>
    <polygon id="498" class="fil17" points="667.45,43.04 668.81,44.05 333.24,494.17 331.88,493.15 "/>
    <polygon id="499" class="fil16" points="668.36,43.72 669.71,44.73 334.14,494.84 332.79,493.83 "/>
    <polygon id="500" class="fil16" points="669.26,44.39 670.62,45.4 335.05,495.51 333.69,494.5 "/>
    <polygon id="501" class="fil15" points="670.16,45.06 671.52,46.07 335.95,496.19 334.6,495.18 "/>
    <polygon id="502" class="fil14" points="671.07,45.74 672.42,46.75 336.85,496.86 335.5,495.85 "/>
    <polygon id="503" class="fil13" points="671.97,46.41 673.33,47.42 337.76,497.54 336.4,496.52 "/>
    <polygon id="504" class="fil12" points="672.88,47.09 674.23,48.1 338.66,498.21 337.31,497.2 "/>
    <polygon id="505" class="fil11" points="673.78,47.76 675.14,48.77 339.57,498.88 338.21,497.87 "/>
    <polygon id="506" class="fil10" points="674.68,48.43 676.04,49.44 340.47,499.56 339.11,498.55 "/>
    <polygon id="507" class="fil9" points="675.59,49.11 676.94,50.12 341.37,500.23 340.02,499.22 "/>
    <polygon id="508" class="fil8" points="676.49,49.78 677.85,50.79 342.28,500.91 340.92,499.89 "/>
    <polygon id="509" class="fil8" points="677.4,50.46 678.75,51.47 343.18,501.58 341.83,500.57 "/>
    <polygon id="510" class="fil7" points="678.3,51.13 679.66,52.14 344.09,502.25 342.73,501.24 "/>
    <polygon id="511" class="fil6" points="679.21,51.8 680.56,52.81 344.99,502.93 343.64,501.92 "/>
    <polygon id="512" class="fil0" points="680.11,52.48 681.46,53.49 345.9,503.6 344.54,502.59 "/>
    <polygon id="513" class="fil0" points="681.01,53.15 682.37,54.16 346.8,504.27 345.44,503.26 "/>
    <polygon id="514" class="fil1" points="681.92,53.83 683.27,54.84 347.7,504.95 346.35,503.94 "/>
    <polygon id="515" class="fil2" points="682.82,54.5 684.18,55.51 348.61,505.62 347.25,504.61 "/>
    <polygon id="516" class="fil2" points="683.72,55.17 685.08,56.18 349.51,506.3 348.16,505.29 "/>
    <polygon id="517" class="fil3" points="684.63,55.85 685.98,56.86 350.41,506.97 349.06,505.96 "/>
    <polygon id="518" class="fil4" points="685.53,56.52 686.89,57.53 351.32,507.64 349.96,506.63 "/>
    <polygon id="519" class="fil4" points="686.44,57.2 687.79,58.21 352.22,508.32 350.87,507.31 "/>
    <polygon id="520" class="fil3" points="687.34,57.87 688.7,58.88 353.13,508.99 351.77,507.98 "/>
    <polygon id="521" class="fil2" points="688.25,58.54 689.6,59.55 354.03,509.67 352.68,508.66 "/>
    <polygon id="522" class="fil2" points="689.15,59.22 690.51,60.23 354.94,510.34 353.58,509.33 "/>
    <polygon id="523" class="fil1" points="690.05,59.89 691.41,60.9 355.84,511.01 354.48,510 "/>
    <polygon id="524" class="fil5" points="690.96,60.56 692.31,61.58 356.74,511.69 355.39,510.68 "/>
    <polygon id="525" class="fil0" points="691.86,61.24 693.22,62.25 357.65,512.36 356.29,511.35 "/>
    <polygon id="526" class="fil6" points="692.77,61.91 694.12,62.92 358.55,513.04 357.2,512.03 "/>
    <polygon id="527" class="fil7" points="693.67,62.59 695.02,63.6 359.46,513.71 358.1,512.7 "/>
    <polygon id="528" class="fil7" points="694.57,63.26 695.93,64.27 360.36,514.38 359,513.37 "/>
    <polygon id="529" class="fil8" points="695.48,63.93 696.83,64.95 361.26,515.06 359.91,514.05 "/>
    <polygon id="530" class="fil8" points="696.38,64.61 697.74,65.62 362.17,515.73 360.81,514.72 "/>
    <polygon id="531" class="fil9" points="697.29,65.28 698.64,66.29 363.07,516.41 361.72,515.4 "/>
    <polygon id="532" class="fil10" points="698.19,65.96 699.55,66.97 363.98,517.08 362.62,516.07 "/>
    <polygon id="533" class="fil11" points="699.09,66.63 700.45,67.64 364.88,517.75 363.52,516.74 "/>
    <polygon id="534" class="fil12" points="700,67.3 701.35,68.32 365.78,518.43 364.43,517.42 "/>
    <polygon id="535" class="fil13" points="700.9,67.98 702.26,68.99 366.69,519.1 365.33,518.09 "/>
    <polygon id="536" class="fil14" points="701.81,68.65 703.16,69.66 367.59,519.78 366.24,518.77 "/>
    <polygon id="537" class="fil15" points="702.71,69.33 704.07,70.34 368.5,520.45 367.14,519.44 "/>
    <polygon id="538" class="fil16" points="703.61,70 704.97,71.01 369.4,521.12 368.04,520.11 "/>
    <polygon id="539" class="fil16" points="704.52,70.67 705.87,71.69 370.3,521.8 368.95,520.79 "/>
    <polygon id="540" class="fil17" points="705.42,71.35 706.78,72.36 371.21,522.47 369.85,521.46 "/>
    <polygon id="541" class="fil17" points="706.33,72.02 707.68,73.03 372.11,523.15 370.76,522.14 "/>
    <polygon id="542" class="fil18" points="707.23,72.7 708.59,73.71 373.02,523.82 371.66,522.81 "/>
    <polygon id="543" class="fil19" points="708.13,73.37 709.49,74.38 373.92,524.49 372.56,523.48 "/>
    <polygon id="544" class="fil20" points="709.04,74.04 710.39,75.06 374.82,525.17 373.47,524.16 "/>
    <polygon id="545" class="fil21" points="709.94,74.72 711.3,75.73 375.73,525.84 374.37,524.83 "/>
    <polygon id="546" class="fil22" points="710.85,75.39 712.2,76.4 376.63,526.52 375.28,525.51 "/>
    <polygon id="547" class="fil22" points="711.75,76.07 713.11,77.08 377.54,527.19 376.18,526.18 "/>
    <polygon id="548" class="fil23" points="712.65,76.74 714.01,77.75 378.44,527.86 377.08,526.85 "/>
    <polygon id="549" class="fil24" points="713.56,77.41 714.91,78.43 379.34,528.54 377.99,527.53 "/>
    <polygon id="550" class="fil24" points="714.46,78.09 715.82,79.1 380.25,529.21 378.89,528.2 "/>
    <polygon id="551" class="fil25" points="715.37,78.76 716.72,79.77 381.15,529.89 379.8,528.88 "/>
    <polygon id="552" class="fil26" points="716.27,79.44 717.63,80.45 382.06,530.56 380.7,529.55 "/>
    <polygon id="553" class="fil26" points="717.17,80.11 718.53,81.12 382.96,531.23 381.6,530.22 "/>
    <polygon id="554" class="fil27" points="718.08,80.78 719.43,81.8 383.86,531.91 382.51,530.9 "/>
    <polygon id="555" class="fil27" points="718.98,81.46 720.34,82.47 384.77,532.58 383.41,531.57 "/>
    <polygon id="556" class="fil28" points="719.89,82.13 721.24,83.14 385.67,533.26 384.32,532.25 "/>
    <polygon id="557" class="fil29" points="720.79,82.81 722.15,83.82 386.58,533.93 385.22,532.92 "/>
    <polygon id="558" class="fil29" points="721.69,83.48 723.05,84.49 387.48,534.6 386.12,533.59 "/>
    <polygon id="559" class="fil30" points="722.6,84.15 723.95,85.17 388.39,535.28 387.03,534.27 "/>
    <polygon id="560" class="fil31" points="723.5,84.83 724.86,85.84 389.29,535.95 387.93,534.94 "/>
    <polygon id="561" class="fil31" points="724.41,85.5 725.76,86.51 390.19,536.63 388.84,535.62 "/>
    <polygon id="562" class="fil32" points="725.31,86.18 726.67,87.19 391.1,537.3 389.74,536.29 "/>
    <polygon id="563" class="fil33" points="726.21,86.85 727.57,87.86 392,537.97 390.64,536.96 "/>
    <polygon id="564" class="fil34" points="727.12,87.52 728.47,88.54 392.9,538.65 391.55,537.64 "/>
    <polygon id="565" class="fil35" points="728.02,88.2 729.38,89.21 393.81,539.32 392.45,538.31 "/>
    <polygon id="566" class="fil36" points="728.93,88.87 730.28,89.88 394.71,540 393.36,538.99 "/>
    <polygon id="567" class="fil36" points="729.83,89.55 731.19,90.56 395.62,540.67 394.26,539.66 "/>
    <polygon id="568" class="fil37" points="730.73,90.22 732.09,91.23 396.52,541.34 395.16,540.33 "/>
    <polygon id="569" class="fil37" points="731.64,90.89 733,91.91 397.43,542.02 396.07,541.01 "/>
    <polygon id="570" class="fil38" points="732.54,91.57 733.9,92.58 398.33,542.69 396.97,541.68 "/>
    <polygon id="571" class="fil39" points="733.45,92.24 734.8,93.25 399.23,543.37 397.88,542.35 "/>
    <polygon id="572" class="fil40" points="734.35,92.92 735.71,93.93 400.14,544.04 398.78,543.03 "/>
    <polygon id="573" class="fil41" points="735.26,93.59 736.61,94.6 401.04,544.71 399.69,543.7 "/>
    <polygon id="574" class="fil42" points="736.16,94.26 737.51,95.27 401.95,545.39 400.59,544.38 "/>
    <polygon id="575" class="fil43" points="737.06,94.94 738.42,95.95 402.85,546.06 401.49,545.05 "/>
    <polygon id="576" class="fil44" points="737.97,95.61 739.32,96.62 403.75,546.74 402.4,545.72 "/>
    <polygon id="577" class="fil45" points="738.87,96.29 740.23,97.3 404.66,547.41 403.3,546.4 "/>
    <polygon id="578" class="fil45" points="739.77,96.96 741.13,97.97 405.56,548.08 404.2,547.07 "/>
    <polygon id="579" class="fil46" points="740.68,97.63 742.04,98.64 406.47,548.76 405.11,547.75 "/>
    <polygon id="580" class="fil46" points="741.58,98.31 742.94,99.32 407.37,549.43 406.01,548.42 "/>
    <polygon id="581" class="fil47" points="742.49,98.98 743.84,99.99 408.27,550.11 406.92,549.09 "/>
    <polygon id="582" class="fil48" points="743.39,99.66 744.75,100.67 409.18,550.78 407.82,549.77 "/>
    <polygon id="583" class="fil49" points="744.3,100.33 745.65,101.34 410.08,551.45 408.73,550.44 "/>
    <polygon id="584" class="fil50" points="745.2,101 746.56,102.01 410.99,552.13 409.63,551.12 "/>
    <polygon id="585" class="fil51" points="746.1,101.68 747.46,102.69 411.89,552.8 410.53,551.79 "/>
    <polygon id="586" class="fil51" points="747.01,102.35 748.36,103.36 412.79,553.48 411.44,552.46 "/>
    <polygon id="587" class="fil52" points="747.91,103.03 749.27,104.04 413.7,554.15 412.34,553.14 "/>
    <polygon id="588" class="fil53" points="748.81,103.7 750.17,104.71 414.6,554.82 413.25,553.81 "/>
    <polygon id="589" class="fil53" points="749.72,104.37 751.08,105.38 415.51,555.5 414.15,554.49 "/>
    <polygon id="590" class="fil54" points="750.62,105.05 751.98,106.06 416.41,556.17 415.05,555.16 "/>
    <polygon id="591" class="fil55" points="751.53,105.72 752.88,106.73 417.31,556.85 415.96,555.83 "/>
    <polygon id="592" class="fil55" points="752.43,106.4 753.79,107.41 418.22,557.52 416.86,556.51 "/>
    <polygon id="593" class="fil56" points="753.34,107.07 754.69,108.08 419.12,558.19 417.77,557.18 "/>
    <polygon id="594" class="fil56" points="754.24,107.74 755.6,108.75 420.03,558.87 418.67,557.86 "/>
    <polygon id="595" class="fil57" points="755.14,108.42 756.5,109.43 420.93,559.54 419.57,558.53 "/>
    <polygon id="596" class="fil58" points="756.05,109.09 757.4,110.1 421.83,560.22 420.48,559.2 "/>
    <polygon id="597" class="fil58" points="756.95,109.77 758.31,110.78 422.74,560.89 421.38,559.88 "/>
    <polygon id="598" class="fil59" points="757.86,110.44 759.21,111.45 423.64,561.56 422.29,560.55 "/>
    <polygon id="599" class="fil60" points="758.76,111.11 760.12,112.12 424.55,562.24 423.19,561.23 "/>
    <polygon id="600" class="fil60" points="759.66,111.79 761.02,112.8 425.45,562.91 424.09,561.9 "/>
    <polygon id="601" class="fil61" points="760.57,112.46 761.92,113.47 426.35,563.59 425,562.57 "/>
    <polygon id="602" class="fil62" points="761.47,113.14 762.83,114.15 427.26,564.26 425.9,563.25 "/>
    <polygon id="603" class="fil63" points="762.38,113.81 763.73,114.82 428.16,564.93 426.81,563.92 "/>
    <polygon id="604" class="fil64" points="763.28,114.48 764.64,115.49 429.07,565.61 427.71,564.6 "/>
    <polygon id="605" class="fil65" points="764.18,115.16 765.54,116.17 429.97,566.28 428.61,565.27 "/>
    <polygon id="606" class="fil65" points="765.09,115.83 766.44,116.84 430.87,566.96 429.52,565.94 "/>
    <polygon id="607" class="fil66" points="765.99,116.51 767.35,117.52 431.78,567.63 430.42,566.62 "/>
    <polygon id="608" class="fil66" points="766.9,117.18 768.25,118.19 432.68,568.3 431.33,567.29 "/>
    <polygon id="609" class="fil67" points="767.8,117.85 769.16,118.86 433.59,568.98 432.23,567.97 "/>
    <polygon id="610" class="fil68" points="768.7,118.53 770.06,119.54 434.49,569.65 433.13,568.64 "/>
    <polygon id="611" class="fil69" points="769.61,119.2 770.96,120.21 435.39,570.33 434.04,569.31 "/>
    <polygon id="612" class="fil70" points="770.51,119.88 771.87,120.89 436.3,571 434.94,569.99 "/>
    <polygon id="613" class="fil71" points="771.42,120.55 772.77,121.56 437.2,571.67 435.85,570.66 "/>
    <polygon id="614" class="fil72" points="772.32,121.22 773.68,122.23 438.11,572.35 436.75,571.34 "/>
    <polygon id="615" class="fil73" points="773.22,121.9 774.58,122.91 439.01,573.02 437.65,572.01 "/>
    <polygon id="616" class="fil74" points="774.13,122.57 775.48,123.58 439.91,573.7 438.56,572.68 "/>
    <polygon id="617" class="fil74" points="775.03,123.25 776.39,124.26 440.82,574.37 439.46,573.36 "/>
    <polygon id="618" class="fil75" points="775.94,123.92 777.29,124.93 441.72,575.04 440.37,574.03 "/>
    <polygon id="619" class="fil75" points="776.84,124.59 778.2,125.6 442.63,575.72 441.27,574.71 "/>
    <polygon id="620" class="fil76" points="777.75,125.27 779.1,126.28 443.53,576.39 442.18,575.38 "/>
    <polygon id="621" class="fil77" points="778.65,125.94 780,126.95 444.44,577.06 443.08,576.05 "/>
    <polygon id="622" class="fil78" points="779.55,126.62 780.91,127.63 445.34,577.74 443.98,576.73 "/>
    <polygon id="623" class="fil79" points="780.46,127.29 781.81,128.3 446.24,578.41 444.89,577.4 "/>
    <polygon id="624" class="fil80" points="781.36,127.96 782.72,128.97 447.15,579.09 445.79,578.08 "/>
    <polygon id="625" class="fil80" points="782.26,128.64 783.62,129.65 448.05,579.76 446.69,578.75 "/>
    <polygon id="626" class="fil81" points="783.17,129.31 784.52,130.32 448.95,580.43 447.6,579.42 "/>
    <polygon id="627" class="fil82" points="784.07,129.98 785.43,131 449.86,581.11 448.5,580.1 "/>
    <polygon id="628" class="fil82" points="784.98,130.66 786.33,131.67 450.76,581.78 449.41,580.77 "/>
    <polygon id="629" class="fil83" points="785.88,131.33 787.24,132.34 451.67,582.46 450.31,581.45 "/>
    <polygon id="630" class="fil84" points="786.79,132.01 788.14,133.02 452.57,583.13 451.22,582.12 "/>
    <polygon id="631" class="fil84" points="787.69,132.68 789.05,133.69 453.48,583.8 452.12,582.79 "/>
    <polygon id="632" class="fil85" points="788.59,133.35 789.95,134.37 454.38,584.48 453.02,583.47 "/>
    <polygon id="633" class="fil85" points="789.5,134.03 790.85,135.04 455.28,585.15 453.93,584.14 "/>
    <polygon id="634" class="fil86" points="790.4,134.7 791.76,135.71 456.19,585.83 454.83,584.82 "/>
    <polygon id="635" class="fil87" points="791.3,135.38 792.66,136.39 457.09,586.5 455.74,585.49 "/>
    <polygon id="636" class="fil87" points="792.21,136.05 793.56,137.06 457.99,587.17 456.64,586.16 "/>
    <polygon id="637" class="fil88" points="793.11,136.72 794.47,137.74 458.9,587.85 457.54,586.84 "/>
    <polygon id="638" class="fil89" points="794.02,137.4 795.37,138.41 459.8,588.52 458.45,587.51 "/>
    <polygon id="639" class="fil89" points="794.92,138.07 796.28,139.08 460.71,589.2 459.35,588.19 "/>
    <polygon id="640" class="fil90" points="795.83,138.75 797.18,139.76 461.61,589.87 460.26,588.86 "/>
    <polygon id="641" class="fil91" points="796.73,139.42 798.09,140.43 462.52,590.54 461.16,589.53 "/>
    <polygon id="642" class="fil92" points="797.63,140.09 798.99,141.11 463.42,591.22 462.06,590.21 "/>
    <polygon id="643" class="fil93" points="798.54,140.77 799.89,141.78 464.32,591.89 462.97,590.88 "/>
    <polygon id="644" class="fil94" points="799.44,141.44 800.8,142.45 465.23,592.57 463.87,591.56 "/>
    <polygon id="645" class="fil94" points="800.35,142.12 801.7,143.13 466.13,593.24 464.78,592.23 "/>
    <polygon id="646" class="fil95" points="801.25,142.79 802.6,143.8 467.04,593.91 465.68,592.9 "/>
    <polygon id="647" class="fil95" points="802.15,143.46 803.51,144.48 467.94,594.59 466.58,593.58 "/>
    <polygon id="648" class="fil96" points="803.06,144.14 804.41,145.15 468.84,595.26 467.49,594.25 "/>
    <polygon id="649" class="fil97" points="803.96,144.81 805.32,145.82 469.75,595.94 468.39,594.93 "/>
    <polygon id="650" class="fil98" points="804.87,145.49 806.22,146.5 470.65,596.61 469.3,595.6 "/>
    <polygon id="651" class="fil99" points="805.77,146.16 807.13,147.17 471.56,597.28 470.2,596.27 "/>
    <polygon id="652" class="fil99" points="806.67,146.83 808.03,147.85 472.46,597.96 471.1,596.95 "/>
    <polygon id="653" class="fil98" points="807.58,147.51 808.93,148.52 473.36,598.63 472.01,597.62 "/>
    <polygon id="654" class="fil97" points="808.48,148.18 809.84,149.19 474.27,599.31 472.91,598.3 "/>
    <polygon id="655" class="fil96" points="809.39,148.86 810.74,149.87 475.17,599.98 473.82,598.97 "/>
    <polygon id="656" class="fil95" points="810.29,149.53 811.65,150.54 476.08,600.65 474.72,599.64 "/>
    <polygon id="657" class="fil95" points="811.19,150.2 812.55,151.22 476.98,601.33 475.62,600.32 "/>
    <polygon id="658" class="fil94" points="812.1,150.88 813.45,151.89 477.88,602 476.53,600.99 "/>
    <polygon id="659" class="fil93" points="813,151.55 814.36,152.56 478.79,602.68 477.43,601.67 "/>
    <polygon id="660" class="fil92" points="813.91,152.23 815.26,153.24 479.69,603.35 478.34,602.34 "/>
    <polygon id="661" class="fil92" points="814.81,152.9 816.17,153.91 480.6,604.02 479.24,603.01 "/>
    <polygon id="662" class="fil90" points="815.71,153.57 817.07,154.59 481.5,604.7 480.14,603.69 "/>
    <polygon id="663" class="fil89" points="816.62,154.25 817.97,155.26 482.4,605.37 481.05,604.36 "/>
    <polygon id="664" class="fil89" points="817.52,154.92 818.88,155.93 483.31,606.05 481.95,605.04 "/>
    <polygon id="665" class="fil88" points="818.43,155.6 819.78,156.61 484.21,606.72 482.86,605.71 "/>
    <polygon id="666" class="fil87" points="819.33,156.27 820.69,157.28 485.12,607.39 483.76,606.38 "/>
    <polygon id="667" class="fil87" points="820.23,156.94 821.59,157.96 486.02,608.07 484.67,607.06 "/>
    <polygon id="668" class="fil86" points="821.14,157.62 822.49,158.63 486.93,608.74 485.57,607.73 "/>
    <polygon id="669" class="fil85" points="822.04,158.29 823.4,159.3 487.83,609.42 486.47,608.41 "/>
    <polygon id="670" class="fil85" points="822.95,158.97 824.3,159.98 488.73,610.09 487.38,609.08 "/>
    <polygon id="671" class="fil84" points="823.85,159.64 825.21,160.65 489.64,610.76 488.28,609.75 "/>
    <polygon id="672" class="fil83" points="824.75,160.31 826.11,161.33 490.54,611.44 489.18,610.43 "/>
    <polygon id="673" class="fil82" points="825.66,160.99 827.01,162 491.44,612.11 490.09,611.1 "/>
    <polygon id="674" class="fil82" points="826.56,161.66 827.92,162.67 492.35,612.79 490.99,611.77 "/>
    <polygon id="675" class="fil81" points="827.47,162.34 828.82,163.35 493.25,613.46 491.9,612.45 "/>
    <polygon id="676" class="fil80" points="828.37,163.01 829.73,164.02 494.16,614.13 492.8,613.12 "/>
    <polygon id="677" class="fil80" points="829.28,163.68 830.63,164.7 495.06,614.81 493.71,613.8 "/>
    <polygon id="678" class="fil79" points="830.18,164.36 831.54,165.37 495.97,615.48 494.61,614.47 "/>
    <polygon id="679" class="fil78" points="831.08,165.03 832.44,166.04 496.87,616.16 495.51,615.14 "/>
    <polygon id="680" class="fil77" points="831.99,165.71 833.34,166.72 497.77,616.83 496.42,615.82 "/>
    <polygon id="681" class="fil76" points="832.89,166.38 834.25,167.39 498.68,617.5 497.32,616.49 "/>
    <polygon id="682" class="fil75" points="833.79,167.05 835.15,168.06 499.58,618.18 498.23,617.17 "/>
    <polygon id="683" class="fil74" points="834.7,167.73 836.05,168.74 500.48,618.85 499.13,617.84 "/>
    <polygon id="684" class="fil74" points="835.6,168.4 836.96,169.41 501.39,619.53 500.03,618.51 "/>
    <polygon id="685" class="fil73" points="836.51,169.08 837.86,170.09 502.29,620.2 500.94,619.19 "/>
    <polygon id="686" class="fil72" points="837.41,169.75 838.77,170.76 503.2,620.87 501.84,619.86 "/>
    <polygon id="687" class="fil71" points="838.32,170.42 839.67,171.43 504.1,621.55 502.74,620.54 "/>
    <polygon id="688" class="fil70" points="839.22,171.1 840.58,172.11 505.01,622.22 503.65,621.21 "/>
    <polygon id="689" class="fil69" points="840.12,171.77 841.48,172.78 505.91,622.9 504.55,621.88 "/>
    <polygon id="690" class="fil68" points="841.03,172.45 842.38,173.46 506.81,623.57 505.46,622.56 "/>
    <polygon id="691" class="fil67" points="841.93,173.12 843.29,174.13 507.72,624.24 506.36,623.23 "/>
    <polygon id="692" class="fil66" points="842.84,173.79 844.19,174.8 508.62,624.92 507.27,623.91 "/>
    <polygon id="693" class="fil66" points="843.74,174.47 845.09,175.48 509.53,625.59 508.17,624.58 "/>
    <polygon id="694" class="fil65" points="844.64,175.14 846,176.15 510.43,626.27 509.07,625.25 "/>
    <polygon id="695" class="fil64" points="845.55,175.82 846.9,176.83 511.33,626.94 509.98,625.93 "/>
    <polygon id="696" class="fil63" points="846.45,176.49 847.81,177.5 512.24,627.61 510.88,626.6 "/>
    <polygon id="697" class="fil63" points="847.35,177.16 848.71,178.17 513.14,628.29 511.79,627.28 "/>
    <polygon id="698" class="fil61" points="848.26,177.84 849.62,178.85 514.05,628.96 512.69,627.95 "/>
    <polygon id="699" class="fil60" points="849.16,178.51 850.52,179.52 514.95,629.64 513.59,628.62 "/>
    <polygon id="700" class="fil60" points="850.07,179.19 851.42,180.2 515.85,630.31 514.5,629.3 "/>
    <polygon id="701" class="fil59" points="850.97,179.86 852.33,180.87 516.76,630.98 515.4,629.97 "/>
    <polygon id="702" class="fil58" points="851.88,180.53 853.23,181.54 517.66,631.66 516.31,630.65 "/>
    <polygon id="703" class="fil58" points="852.78,181.21 854.14,182.22 518.57,632.33 517.21,631.32 "/>
    <polygon id="704" class="fil57" points="853.68,181.88 855.04,182.89 519.47,633.01 518.11,631.99 "/>
    <polygon id="705" class="fil56" points="854.59,182.56 855.94,183.57 520.37,633.68 519.02,632.67 "/>
    <polygon id="706" class="fil100" points="855.49,183.23 856.85,184.24 521.28,634.35 519.92,633.34 "/>
    <polygon id="707" class="fil55" points="856.4,183.9 857.75,184.91 522.18,635.03 520.83,634.02 "/>
    <polygon id="708" class="fil54" points="857.3,184.58 858.66,185.59 523.09,635.7 521.73,634.69 "/>
    <polygon id="709" class="fil53" points="858.2,185.25 859.56,186.26 523.99,636.38 522.63,635.36 "/>
    <polygon id="710" class="fil53" points="859.11,185.93 860.46,186.94 524.89,637.05 523.54,636.04 "/>
    <polygon id="711" class="fil52" points="860.01,186.6 859.54,186.25 523.97,636.36 524.44,636.71 "/>
   </g>
  </g>
  <path class="fil101" d="M815.86 264.04l-815.2 0 0 -245.73c338.91,29.75 280.18,231.49 714.38,210.31 31.31,-1.53 64.47,-11.35 100.82,-19.72l0 55.14z"/>
 </g>
</svg>
