<?xml version="1.0" encoding="UTF-8"?>
<svg id="Layer_2" data-name="Layer 2" xmlns="http://www.w3.org/2000/svg" xmlns:xlink="http://www.w3.org/1999/xlink" viewBox="0 0 158 251">
  <defs>
    <style>
      .cls-1 {
        fill: #6e2c91;
      }

      .cls-2 {
        opacity: .1;
      }

      .cls-3 {
        clip-path: url(#clippath);
      }

      .cls-4 {
        fill: none;
      }

      .cls-5 {
        fill-rule: evenodd;
      }
    </style>
    <clipPath id="clippath">
      <rect class="cls-4" width="158" height="251"/>
    </clipPath>
  </defs>
  <g id="Layer_1-2" data-name="Layer 1">
    <g class="cls-3">
      <path class="cls-1" d="M-1.18,211.11s70.33,44.75,184.01,33.08l-.96,23.35-236.4-16.54L-1.18,211.11Z"/>
      <g id="Layer_1-3" data-name="Layer_1" class="cls-2">
        <g id="_2943945153840" data-name=" 2943945153840">
          <path class="cls-5" d="M165.84,204.82c0-1.14-.21-2.61,.19-3.68l.35-1.09c.11-.33,.11-.23,.23-.5,.16-.37,0-.16,.23-.5,.41-.62,.87-.64,1.54-.64,.33,0,.85,.64,1.06,.88,2.3,2.71,.7,9.08,1.41,9.71,.35,.31,1.21,.26,1.63,.16l2.19-.72c1.68-.63,.37-.21,1.85-1.05,1.75-.99,3.43-4.02,4.25-4.46,.53-.28,.21-.19,.79-.05,0,1.24-.23,1.4-.76,2.26l-2.53,2.78c-.26,.19-.33,.16-.64,.33l-1.97,1.3c-.74,.53-.96,.16-1.54,.51-.79,.47-.68,.45-1.74,.43-2.67-.03-1.79,.05-2.63,1.6-.23,.43-.13,1.23-.32,1.74-.18,.48-.26,1.19-.49,1.68l-.96,2.18c-.22,.41-.18,.31-.3,.79l-.5,1.19s-.02,.06-.03,.09l-.49,.84c-.43,.64-.64,1.45-1.06,2.09-.25,.38-.72,.84-.88,1.3-.58,1.68-.14,.52-1.09,2.06-.17,.27-.25,.41-.42,.67-.5,.75-1.17,1.85-1.75,2.48-.47,.52-.38,.71-.94,1.12l-1.19,.99c-.31,.19-.28,.22-.54,.43l-1.36,.82c-.43,.3-.14,.33-.74,.28-1.91-.14-1.16-.11-1.69-.38-.43-.21-1.16-.25-1.54-.63-.35-.35-.47-.99-.79-1.26-.75-.63-.53-.35-.85-1.33-.77-2.38-.84-6.68-.35-9.05,.12-.57,.16-1.4,.35-1.94,.2-.55,.19-1.25,.44-1.85,.25-.58,.21-1.13,.55-1.75,.26-.5,.43-.99,.6-1.58,.2-.74,.1-1.1,.52-1.78,.3-.48,1.98-4.2,.7-3.68l-.63,.36c-.37,.16-.4,.07-.77,.19l-1.5,.43c-.74,.23-1.63,.5-2.45,.57-.74,.06-1.03,.13-1.46,.47-.3,.25-.64,.72-.86,1.07l-.62,.96c-.67,.8-.52,.98-1.47,1.92-1.24,1.23-.69,.94-2.39,2.45l-2.23,1.77c-.5,.46-1.76,1.21-2.5,1.37-.38,.08-.48,.02-.83,.14-.35,.12-.38,.28-.81,.28-3.17,0-1.45,.11-3.65-.46-.84-.21-1.29-.55-1.88-1.02l-1.4-1.62c-.6-.81-1.35-3.8-1.41-4.39-.13-1.43-.41-3.94,.16-5.27,.21-.48,.14-.23,.24-.85,.23-1.4,1.24-4.28,2.02-5.36,.43-.58,1.04-2.07,1.48-2.63,.01-.02,.04-.05,.05-.07l.1-.14s.04-.05,.05-.07l.4-.45c.2-.22,.35-.32,.52-.57,.67-.99,2.14-2.58,3.15-3.13,.92-.51,1.63-1.15,2.63-1.6,1.99-.9,1.19-.67,3.1-1.01,1.5-.26,2.75-.27,4.22,0,.4,.08,.39,.04,.67,.08,1.46,.21,2.86,1.45,3.57,2.68,.33,.57,.71,2.01,.85,2.78,.08,.47,.16,.35,.26,.71,.1,.31,.01,2.41-.04,3.05-.06,.75-.33,.49-.36,1.45-.06,1.78-.92,2.82-1.48,4.8,0,.03-.8,1.6,.52,1.6,.31,0,.4-.18,.56-.29l.57-.28c.48-.18,.28-.17,.55-.3,.57-.27,1.34-.19,1.96-.58,.69-.43,1.43-.84,2-1.38,.33-.31,0-.14,.41-.43l1.97-3.1s.03-.06,.04-.09c.25-.58,.58-1.13,.76-1.78,.06-.2,.1-.46,.18-.66,.42-1.01,1.06-1.84,1.51-2.84,.17-.38,.25-.88,.43-1.26l.94-1.6c.25-.35,.16-.28,.31-.65,.41-1.02,.99-1.86,1.54-2.81l.26-.47c.08-.17,.03-.09,.12-.25,.11-.19,.03,0,.19-.28,.15-.26,.16-.43,.3-.67l.38-.47c.23-.3,.13-.19,.3-.55,.72-1.61,2.01-3.27,2.99-4.75l.94-1.11c1.07-1.12,2.22-2.19,3.69-2.72l.35-.13c1.5-.45,2.34-.96,3.82,.09,.65,.47,.58,.52,1.01,1.17,.48,.75,.35,.51,.49,1.57,.08,.59,.33,1.16,.33,1.84v2.66c0,.49-.18,.4-.25,1.09-.16,1.84-.23,1.71-.92,3.19l-.79,1.15c-2.19,2.73-4.19,1.18-3.43-.77,.21-.56,.51-.51,.83-.99,.17-.25,.19-.31,.38-.58,.45-.6,1.01-.77,1.41-1.37l.68-1.14c.09-.18,.22-.49,.28-.69,.09-.28,.08-.44,.16-.81,.06-.32,.13-.52,.18-.8,.3-1.75-.41-2.85-1.99-2.1-.95,.45-1.58,.96-2.32,1.67l-2.5,2.81c-.53,.7-.87,1.55-1.33,2.3l-2.32,4.21c-.16,.35-.02,.04-.18,.3l-1.21,2.3c-.3,.57-.71,1.11-.92,1.74-.16,.47-.04,.27-.3,.67l-.59,1.11c-.35,.69-.4,1.18-.79,1.87-.4,.71-1.68,3.5-1.9,4.27l-.76,2.14c-.25,.75-.56,.99-.74,1.67-.26,.98-.65,1.63-.97,2.53-.11,.29-.16,.36-.26,.59-.57,1.39-.36,1.87-1.09,3.38l-.98,2.65c-.19,.89-.75,1.77-.82,2.68-.11,1.24-.47,1.72-.73,2.78-.13,.53-.06,.97-.18,1.52-.11,.53-.24,.81-.35,1.46-.05,.31-.04,2.94,.11,3.36,.19,.55-.07,.08,.37,.47,1.14,1.04,1.72,.89,3.39-.2,.7-.46,1.23-1.19,1.63-1.87l.46-.51c.43-.52,.7-1.41,1.02-2.01,.01-.03,.03-.06,.04-.08,.23-.45,.66-.89,.84-1.33,.26-.63,.12-.69,.55-1.26,.21-.29,.17-.2,.32-.53l1.78-4.38c.55-1.02,.53-1.63,.96-2.67l.35-1.35c.13-.59,.3-.57,.47-1.34l.33-1.36c.07-.58,.67-1.78,.57-2.89-.06-.65-.38-.53-.63-1.18l-.79-2.83h0l.03,.04Zm-45.33-3.51c0,1.4-.03,5.39,.18,6.34,.09,.4,.17,.44,.25,.72,.14,.55,.03,1.31,.16,1.9,.09,.41,.15,.45,.22,.75,.09,.4,.04,.43,.17,.79l.48,1.57c.16,.5,.31,1.06,.47,1.58l.66,1.4c.25,.46,.1,.18,.24,.73,.09,.36,.13,.4,.26,.71,.41,1,.92,1.79,1.38,2.73,.87,1.75,.82,1.36,1.49,2.5l1.86,2.61c.26,.36,.6,.53,.64,1.06,.63,.07,.39,.2,.92,.77,.5,.54,.24,.39,.87,.94l.8,.89c.14,.14,.37,.37,.43,.41l1.01,.8c.18,.18,.27,.25,.44,.4l2.97,2.23c.74,.53,.16-.03,1.41,.88,.99,.71,.31,.02,.77,.69,.21,.3,.38,.28,.68,.41l.39,.21c.45,.22,.77,.45,1.25,.56,1.31,.28,.63,.48,1.78,.75,.78,.18,1.2,.72,1.95,.83,.55,.09,.88,.33,1.47,.35v.36c.45,0,1.12-.06,1.51,.09l.44,.25c.31,.11,.79,.1,1.13,.21,.44,.15,.4,.28,1.03,.3,.19,0,.43-.02,.62,0,.72,.04,.47,.26,.97,.36l1.92,.13c.45,.03,1.55-.13,1.87-.02,.19,.07,.04,.26,.43,.26h3.14c.44,0,.03-.14,.73-.23,.34-.04,.66-.07,.87-.09,.57-.08,1.35,.08,1.8-.13,.63-.28-.33-.23,1.67-.26,.6-.01,.37,.03,.79-.18,.53-.26,.15-.14,.89-.21,.71-.06,1.62-.26,2.29-.61,.71-.36,1.55-.51,2.34-.68,.53-.11,.99-.41,1.5-.67l.49-.24s.05-.03,.08-.04c.23-.12,.03-.03,.33-.16,.2-.08,.14-.04,.35-.13,.55-.25,1.25-.5,1.71-.83l.73-.6s.06-.03,.09-.04l.58-.39s.05-.04,.07-.05,.05-.04,.07-.05l.88-.45s.05-.04,.07-.05c.03-.01,.05-.04,.07-.05l2.94-2.25c.48-.54,.94-.08,1.02-1.03,.53-.01,.48,0,.78-.31,.22-.24,.3-.34,.52-.57l2.22-2.37c.21-.19,.37-.31,.56-.53l2.07-2.77c.79-1.05,1.35-2.38,2.09-3.47,.35-.5,.4-.97,.69-1.49,.14-.26,.32-.41,.45-.64l1.34-3.26c.13-.33,.13-.63,.23-.97l.48-1.81c.27-.82,.55-2.58,.61-3.48,.04-.53,.21-.38,.31-1.04l.07-1.89c.26-.89,.25-2.46,.17-3.32-.07-.76,.03-1.65,0-2.42-.02-.48-.21-.87-.25-2.04-.03-.89-.26-1.14-.42-2-.17-.92-.08-1.11-.38-2.16-.26-.89-.43-1.92-.82-2.81-.23-.52-.21-.26-.38-.94l-1.48-3.48c-.19-.35-.25-.35-.43-.77-.15-.33-.21-.52-.36-.85l-1.92-3.04c-.28-.33-.33-.27-.55-.66-.17-.29,.04-.04-.23-.37l-1.7-2.04c-.41-.35-.61-.69-.62-1.31-.94-.02-1.82-1.19-2.38-1.85l-3.89-3.12-2.72-1.63c-1.14-.72-2.31-1.21-3.57-1.75l-1.43-.62c-.28-.1-.03-.02-.34-.14-1.93-.82-4.13-1.4-6.21-1.65-.55-.07-.7-.28-1.29-.4-.44-.09-1.28-.1-1.66-.15-1.19-.16-2.48,.08-3.67-.2-.74-.17-1.54,.16-2.34,.17-3.36,.03-2.75,.36-4.59,.61-1.4,.19-3.11,.43-4.43,.89-.57,.19-.31,.35-1.11,.58-1.3,.36-2.49,.94-3.7,1.5-.94,.43-2,.91-2.83,1.53-.45,.34-.6,.21-1.65,1.01l-3.04,2.28s-.1,.09-.13,.11l-1.67,1.48s-.04,.04-.06,.06c-.02,.02-.04,.04-.06,.06l-3.24,3.53c-1.31,1.6-2.62,3.44-3.52,5.31l-.73,1.2c-.4,.48-.73,1.71-.94,2.32l-.74,1.68c-.18,.45-.21,.21-.33,.77l-.45,1.36c-.06,.29,0,.5-.06,.79-.09,.45-.35,.8-.43,1.26-.21,1.14-.25,.72-.4,2.26-.09,.91-.4,2.09-.45,3.06-.03,.52,.06,.33,.06,.7,0,.3-.08,.37-.08,.85h0l.03-.07Z"/>
          <path class="cls-5" d="M153.14,64.86v2.9c0,.51,.09,.67,.09,.98l-.09,1.68c0,.47,.09,.55,.09,.85s-.1,.43-.07,.82c.03,.38,.13,.32,.11,.85-.04,.92-.23,.21-.03,1.86l-.09,4.55c0,1.08,.6,.97-2.29,.97h-21.03c-.57,0-1.13,0-1.7,0-1.18,0-.75,.18-1.45,.36v6.04c.73,.19,.09,.39,1.45,.36,1.45-.03,1.32-.14,1.45,.36,.23,0,.47,.03,.69-.04l.3-.18c.5-.29,3.89-.14,4.58-.14h18.01v29.37c0,.48,.09,.55,.09,.85s-.09,.37-.09,.85v36.5c0,.7,.13,1.08,.13,1.57l-.13,2.41c0,.48,.09,.55,.09,.85s-.09,.37-.09,.85c0,1.23-.14,3.24,.12,4.35,1.23,.28,1.93,.05,2.79,.03l1.56,.09c.48,0,.55-.09,.85-.09,.24,0,1.94,.36,1.94-.4v-12.69c0-.65-.1-.71-.12-1.32-.04-1.04,.13-1.68,.13-2.78v-57.77c0-3.51-.45-2.66,2.9-2.66h17.28c.79,0,2.25,.09,2.73,.06,.92-.06,1.85-.06,2.82-.06,.63-.94,.48-.99,.48-2.54,0-.79-.18-1.52-.09-2.14,.14-.94,.06-1.08-.15-1.97-.27-.06-.28-.12-.6-.12-8.19,0-16.5-.12-24.67,.07-.3,0-.26-.06-.71-.07v-26.96c0-.6-2.14-.36-3.26-.36h-3.75c-.38,1.63,.03,7.63-.21,10.55-.03,.29,.03,.42,.03,.58,0,.33-.07,.25-.07,.71h-.01Z"/>
          <path class="cls-5" d="M92.95,172.66c0,1.67-.18,4.75,.05,6.24,.08,.48,.09,.97,.08,1.5-.02,.57-.18,.82-.11,1.43v12.83c-.01,1.35,0,2.58,.1,3.75,.11,1.38-.13,2.66-.12,3.86v19.58c0,.58-.12,3.38,0,3.75l.47,.5c.28,.16,.43,.12,.85,.11,9.93-.11,20.4,0,30.34,0,.3-1.27-.1-.39-.6-1.45l-.42-1.03c-.55-1.08-.54-.46-.92-1.37-.23-.54-.21-.28-.59-.85h-14.5c-.17-.25-.36-.31-.36-.6v-4.6c0-.51,.09-.67,.09-.98,.01-.37-.09-.53-.09-1.07v-14.87c0-.38-.02-.83,0-1.21,.03-.53,.13-.59,.13-1.21l-.13-8.83c0-.5-.03-1.08,0-1.57v-2.9c-.08-1.41,.04-2.98,.07-4.37,0-.32-.07-.25-.07-.71,0-.58,.11-.82,.11-1.21l-.11-2.9c0-1.02,.21-1.14,0-2.06-.53-.01-.43-.1-.97-.13-.55-.03-.73,.06-1.1,.11-.95,.11-1.39-.14-2.28-.11l-8.1,.13c-.53,0-.44-.25-.97-.25-.44,0-.26,.33-.85,.48h0Z"/>
          <path class="cls-5" d="M92.95,234.55c.36,.09,.26,0,.36,.36l9.18,.12h2.06c.85,0,1.21-.12,1.93-.13,1.54-.02,2.64,.13,4.12,.13,1.8,0,3.23-.11,5.08-.12,.94,0,1.42,.13,2.41,.13h14.87c.36,0,.41-.21,.48-.48-.31-.42-.41-.18-.72-.49-.02-.02-.04-.04-.06-.07-.01-.02-.03-.05-.04-.08-.01-.02-.03-.06-.04-.08-.42-.61-.08-.21-.55-.42-.19-.09-.06-.02-.25-.12l-.23-.13s-.06-.03-.08-.04c-.73-.43-.21-.36-.77-.92-.63-.63-.82,.03-.89-.8h-.36v-.36c-.94-.1,.35-.07-1.14-.56-.5-.16,.09-.17-.43-.17h-34.2c-.26,0-.58,.32-.67,.54-.13,.34-.06,3.2-.06,3.69h0Z"/>
          <path class="cls-5" d="M141.66,194.06c-.96,.08-.99,.42-1.55,.87-.76,.61-.52,.13-1.31,1.23l-3.26,4.23c-.37,.57-.59,1.41-1.31,2.44-.47,.67-1.76,3.65-1.87,4.41-.1,.68-.13,.42-.35,.85-.14,.28-.05,.13-.16,.45-.55,1.63-.95,2.9-.94,4.86,0,1.77-.36,3.33,1.19,4.14,1.92,.99,2.75,1.03,5.19-.06,.38-.17,.46-.19,.78-.43l.67-.65c.73-.72,1.39-.72,2.53-2.55,.77-1.24,.35-.14,1.48-2.15,.38-.69,.4-.46,.63-.69,.42-.42,.08-.32,.35-.86,.18-.34,.97-.82-.52-1.31-.62-.21,.36,.16-.18-.06l-1.43-.86c-.11-.09-.41-.48-.57-.64-2.19-2.18-.77-1.58-1.6-3.47-.33-.75-.11-1.43-.19-2.36-.1-1.18,.08-.82,.32-1.87,.09-.42,.08-.62,.19-1.01,.11-.35,.21-.57,.33-1.01l1.19-2.56c.21-.55,.08-.47,.4-.94h0Z"/>
          <path class="cls-5" d="M140.7,200.95c0,2.62-.31,1.04,.33,3.54,.03,.1,.04,.19,.08,.29l.25,.47c.8,1.7,.35,.82,1.43,1.71l1.79,1.12c.42-.4,.43-.7,.73-1.2,.27-.46,.4-.78,.62-1.32l1.16-2.83c.35-.93,.2-.85,.74-2.16,.19-.47,.08-.25,.16-.82,.08-.57,.35-.91,.43-1.5,.21-1.57,.74-1.7,.15-3.35-.14-.38-.1-.7-.25-1.07-.13-.31-.28-.43-.54-.67-.66-.65-.4-.55-1.63-.55-.43,0-1.96,.87-2.25,1.26-1.02,1.34-1.24,1.54-2.06,3.13l-.7,1.96c-.08,.31-.03,.44-.11,.74-.13,.41-.18,.26-.31,.54-.27,.6,0,.04,0,.72h0Z"/>
          <path class="cls-5" d="M141.06,216.42l.13-.48h-.62q.04,.44,.48,.48Z"/>
        </g>
      </g>
    </g>
  </g>
</svg>