<?xml version="1.0" encoding="UTF-8"?>
<svg id="Layer_2" data-name="Layer 2" xmlns="http://www.w3.org/2000/svg" xmlns:xlink="http://www.w3.org/1999/xlink" viewBox="0 0 158 252">
  <defs>
    <style>
      .cls-1, .cls-2, .cls-3 {
        fill: #fff;
      }

      .cls-2 {
        fill-rule: evenodd;
      }

      .cls-4 {
        fill: #6e2c91;
      }

      .cls-5 {
        fill: url(#radial-gradient);
      }

      .cls-6 {
        clip-path: url(#clippath);
      }

      .cls-7 {
        fill: none;
      }

      .cls-3 {
        font-family: ClashDisplay-Semibold, 'Clash Display';
        font-size: 5.75px;
        font-weight: 600;
        isolation: isolate;
      }
    </style>
    <clipPath id="clippath">
      <rect class="cls-7" width="158" height="252"/>
    </clipPath>
    <radialGradient id="radial-gradient" cx="77.28" cy="37.75" fx="77.28" fy="113.8" r="76.06" gradientTransform="translate(1.8) scale(.97 .99)" gradientUnits="userSpaceOnUse">
      <stop offset=".17" stop-color="#0087cd"/>
      <stop offset=".95" stop-color="#272361"/>
    </radialGradient>
  </defs>
  <g id="Layer_1-2" data-name="Layer 1">
    <g class="cls-6">
      <ellipse class="cls-5" cx="79.48" cy="-2.93" rx="98.75" ry="59.58"/>
      <path class="cls-4" d="M166.48,211.95s-70.33,44.93-184.01,33.21l.96,23.44,236.4-16.6-53.36-40.05Z"/>
    </g>
    <g id="Layer_1-3" data-name="Layer_1">
      <g id="_2943945153840" data-name=" 2943945153840">
        <path class="cls-2" d="M65.1,21.16c0-.07-.01-.15,.01-.21l.02-.06s0-.01,.01-.03c0-.02,0,0,.01-.03,.02-.04,.05-.04,.09-.04,.02,0,.05,.04,.06,.05,.13,.16,.04,.52,.08,.56,.02,.02,.07,.01,.09,0l.13-.04c.1-.04,.02-.01,.11-.06,.1-.06,.2-.23,.24-.26,.03-.02,.01-.01,.04,0,0,.07-.01,.08-.04,.13l-.14,.16s-.02,0-.04,.02l-.11,.07s-.05,0-.09,.03c-.05,.03-.04,.03-.1,.02-.15,0-.1,0-.15,.09-.01,.02,0,.07-.02,.1-.01,.03-.01,.07-.03,.1l-.06,.12s-.01,.02-.02,.04l-.03,.07s0,0,0,0l-.03,.05s-.04,.08-.06,.12c-.01,.02-.04,.05-.05,.07-.03,.1,0,.03-.06,.12,0,.02-.01,.02-.02,.04-.03,.04-.07,.11-.1,.14-.03,.03-.02,.04-.05,.06l-.07,.06s-.02,.01-.03,.02l-.08,.05s0,.02-.04,.02c-.11,0-.07,0-.1-.02-.02-.01-.07-.01-.09-.04-.02-.02-.03-.06-.05-.07-.04-.04-.03-.02-.05-.08-.04-.14-.05-.38-.02-.52,0-.03,0-.08,.02-.11,.01-.03,.01-.07,.03-.11,.01-.03,.01-.06,.03-.1,.02-.03,.02-.06,.03-.09,.01-.04,0-.06,.03-.1,.02-.03,.11-.24,.04-.21l-.04,.02s-.02,0-.04,.01l-.09,.02s-.09,.03-.14,.03c-.04,0-.06,0-.08,.03-.02,.01-.04,.04-.05,.06l-.04,.05s-.03,.06-.08,.11c-.07,.07-.04,.05-.14,.14l-.13,.1s-.1,.07-.14,.08c-.02,0-.03,0-.05,0-.02,0-.02,.02-.05,.02-.18,0-.08,0-.21-.03-.05-.01-.07-.03-.11-.06l-.08-.09s-.08-.22-.08-.25c0-.08-.02-.23,0-.3,.01-.03,0-.01,.01-.05,.01-.08,.07-.24,.12-.31,.02-.03,.06-.12,.08-.15,0,0,0,0,0,0h0s0-.01,0-.01l.02-.03s.02-.02,.03-.03c.04-.06,.12-.15,.18-.18,.05-.03,.09-.07,.15-.09,.11-.05,.07-.04,.18-.06,.09-.02,.16-.02,.24,0,.02,0,.02,0,.04,0,.08,.01,.16,.08,.2,.15,.02,.03,.04,.12,.05,.16,0,.03,0,.02,.02,.04,0,.02,0,.14,0,.17,0,.04-.02,.03-.02,.08,0,.1-.05,.16-.08,.27,0,0-.05,.09,.03,.09,.02,0,.02-.01,.03-.02l.03-.02s.02,0,.03-.02c.03-.02,.08-.01,.11-.03,.04-.02,.08-.05,.11-.08,.02-.02,0,0,.02-.02l.11-.18s0,0,0,0c.01-.03,.03-.06,.04-.1,0-.01,0-.03,.01-.04,.02-.06,.06-.11,.09-.16,0-.02,.01-.05,.02-.07l.05-.09s0-.02,.02-.04c.02-.06,.06-.11,.09-.16v-.03s.02,0,.02-.01c0-.01,0,0,.01-.02,0-.01,0-.02,.02-.04l.02-.03s0-.01,.02-.03c.04-.09,.12-.19,.17-.27l.05-.06c.06-.06,.13-.13,.21-.16h.02c.09-.03,.13-.06,.22,0,.04,.03,.03,.03,.06,.07,.03,.04,.02,.03,.03,.09,0,.03,.02,.07,.02,.11v.15s-.01,.02-.01,.06c0,.11-.01,.1-.05,.18l-.04,.07c-.13,.16-.24,.07-.2-.04,.01-.03,.03-.03,.05-.06,0-.01,.01-.02,.02-.03,.03-.03,.06-.04,.08-.08l.04-.07s.01-.03,.02-.04c0-.02,0-.03,0-.05,0-.02,0-.03,.01-.05,.02-.1-.02-.16-.11-.12-.05,.03-.09,.05-.13,.1l-.14,.16s-.05,.09-.08,.13l-.13,.24s0,0-.01,.02l-.07,.13s-.04,.06-.05,.1c0,.03,0,.02-.02,.04l-.03,.06s-.02,.07-.05,.11c-.02,.04-.1,.2-.11,.24l-.04,.12s-.03,.06-.04,.1c-.01,.06-.04,.09-.06,.14,0,.02,0,.02-.01,.03-.03,.08-.02,.11-.06,.19l-.06,.15c-.01,.05-.04,.1-.05,.15,0,.07-.03,.1-.04,.16,0,.03,0,.06-.01,.09,0,.03-.01,.05-.02,.08,0,.02,0,.17,0,.19,.01,.03,0,0,.02,.03,.07,.06,.1,.05,.19-.01,.04-.03,.07-.07,.09-.11l.03-.03s.04-.08,.06-.11c0,0,0,0,0,0,.01-.03,.04-.05,.05-.08,.01-.04,0-.04,.03-.07,.01-.02,0-.01,.02-.03l.1-.25c.03-.06,.03-.09,.05-.15l.02-.08s.02-.03,.03-.08l.02-.08s.04-.1,.03-.17c0-.04-.02-.03-.04-.07l-.05-.16h0Zm-2.59-.2c0,.08,0,.31,.01,.36,0,.02,0,.03,.01,.04,0,.03,0,.08,0,.11,0,.02,0,.03,.01,.04,0,.02,0,.02,0,.05l.03,.09s.02,.06,.03,.09l.04,.08s0,.01,.01,.04c0,.02,0,.02,.01,.04,.02,.06,.05,.1,.08,.16,.05,.1,.05,.08,.09,.14l.11,.15s.03,.03,.04,.06c.04,0,.02,.01,.05,.04,.03,.03,.01,.02,.05,.05l.05,.05s.02,.02,.02,.02l.06,.05s.02,.01,.03,.02l.17,.13s0,0,.08,.05c.06,.04,.02,0,.04,.04,.01,.02,.02,.02,.04,.02h.02s.04,.04,.07,.04c.08,.02,.04,.03,.1,.04,.04,.01,.07,.04,.11,.05,.03,0,.05,.02,.08,.02v.02s.06,0,.09,0h.03s.05,.02,.06,.03c.03,0,.02,.02,.06,.02,.01,0,.02,0,.04,0,.04,0,.03,.01,.06,.02h.11s.09,0,.11,0c.01,0,0,.01,.02,.01h.18s0,0,.04-.01c.02,0,.04,0,.05,0,.03,0,.08,0,.1,0,.04-.02-.02-.01,.1-.01,.03,0,.02,0,.04-.01,.03-.01,0,0,.05-.01,.04,0,.09-.02,.13-.03,.04-.02,.09-.03,.13-.04,.03,0,.06-.02,.09-.04h.03s0-.02,0-.02c.01,0,0,0,.02,0,.01,0,0,0,.02,0,.03-.01,.07-.03,.1-.05l.04-.03s0,0,0,0l.03-.02s0,0,0,0,0,0,0,0l.05-.03s0,0,0,0c0,0,0,0,0,0l.17-.13s.05,0,.06-.06c.03,0,.03,0,.04-.02,.01-.01,.02-.02,.03-.03l.13-.14s.02-.02,.03-.03l.12-.16c.05-.06,.08-.14,.12-.2,.02-.03,.02-.06,.04-.09,0-.01,.02-.02,.03-.04l.08-.19s0-.04,.01-.06l.03-.1s.03-.15,.03-.2c0-.03,.01-.02,.02-.06v-.11c.02-.05,.02-.14,.01-.19,0-.04,0-.09,0-.14,0-.03-.01-.05-.01-.12,0-.05-.02-.07-.02-.11,0-.05,0-.06-.02-.12-.01-.05-.02-.11-.05-.16-.01-.03-.01-.01-.02-.05l-.08-.2s-.01-.02-.02-.04c0-.02-.01-.03-.02-.05l-.11-.17s-.02-.02-.03-.04c0-.02,0,0-.01-.02l-.1-.12s-.03-.04-.04-.07c-.05,0-.1-.07-.14-.11l-.22-.18-.16-.09c-.07-.04-.13-.07-.2-.1l-.08-.04s0,0-.02,0c-.11-.05-.24-.08-.36-.09-.03,0-.04-.02-.07-.02-.03,0-.07,0-.09,0-.07,0-.14,0-.21-.01-.04,0-.09,0-.13,0-.19,0-.16,.02-.26,.03-.08,.01-.18,.02-.25,.05-.03,.01-.02,.02-.06,.03-.07,.02-.14,.05-.21,.09-.05,.02-.11,.05-.16,.09-.03,.02-.03,.01-.09,.06l-.17,.13s0,0,0,0l-.1,.08s0,0,0,0c0,0,0,0,0,0l-.19,.2c-.08,.09-.15,.2-.2,.3l-.04,.07s-.04,.1-.05,.13l-.04,.1s-.01,.01-.02,.04l-.03,.08s0,.03,0,.04c0,.03-.02,.05-.02,.07-.01,.07-.01,.04-.02,.13,0,.05-.02,.12-.03,.18,0,.03,0,.02,0,.04,0,.02,0,.02,0,.05h0Z"/>
        <path class="cls-2" d="M64.38,13.15v.17s0,.04,0,.06v.1s0,.03,0,.05,0,.02,0,.05c0,.02,0,.02,0,.05,0,.05-.01,.01,0,.11v.26c0,.06,.03,.06-.14,.06h-1.2s-.06,0-.1,0c-.07,0-.04,.01-.08,.02v.35s0,.02,.08,.02c.08,0,.08,0,.08,.02,.01,0,.03,0,.04,0h.02s.22-.02,.26-.02h1.03v1.68s0,.03,0,.05,0,.02,0,.05v2.09s0,.06,0,.09v.14s0,.03,0,.05,0,.02,0,.05c0,.07,0,.19,0,.25,.07,.02,.11,0,.16,0h.09s.03,0,.05,0c.01,0,.11,.02,.11-.02v-.73s0-.04,0-.08c0-.06,0-.1,0-.16v-3.31c0-.2-.03-.15,.17-.15h.99s.13,0,.16,0c.05,0,.11,0,.16,0,.04-.05,.03-.06,.03-.15,0-.05-.01-.09,0-.12,0-.05,0-.06,0-.11-.02,0-.02,0-.03,0-.47,0-.94,0-1.41,0-.02,0-.02,0-.04,0v-1.54s-.12-.02-.19-.02h-.21c-.02,.09,0,.44-.01,.6,0,.02,0,.02,0,.03,0,.02,0,.01,0,.04h0Z"/>
        <path class="cls-2" d="M66.55,19.81s-.06,.02-.02,.06c.02,.02,.02,.03,.04,.07l.04,.07c.04,.09,.08,.07,.26,.07,.04,0,0-.01,.1-.01h.1s.02,0,.03,.02c0,.01,0,.87,0,.97,0,.03,0,.05,0,.08,0,.03,0,.04,0,.07v.84s.01,.08,0,.12v.62c0,.11-.03,.09,.31,.09,.03,0,.05,0,.07,0h.16s.03,0,.05,0,.02,0,.05,0c.2,0,.17,.03,.17-.17,0-.15,0-.56,0-.65,0-.05,0-.05,0-.09,0-.03,0-.03,0-.05,0-.02,0-.04,0-.05v-.54c0-.05,.01-.1,0-.15,0-.02,0-.03,0-.05,0-.03,0-.02,0-.05v-.1s0-.03,0-.04c0-.02,0-.01,0-.04v-.13s0-.05,0-.08c0-.03,0-.05,0-.08v-.53c.07-.02,.21,0,.25,0,.04,0-.03-.01,.1-.01,.02,0,.01,.01,.03,.01s.01-.01,.03-.01h.23s-.03,.01,.09,.01c.04,0,0-.01,.1-.01,.02,0,.01,.01,.13,.01,.02,0,.02-.02,.03-.03,.02-.05,.02,0,.02-.08,0-.03,0-.05,0-.07,0-.02,.03-.08-.05-.09-.07,0,.07-.02-.2-.02-.02,0-.02,.01-.14,.01-.13,0-.36,0-.47,0h-.15s-.12,0-.15,0c-.01,0-.04,0-.07,0-.03,0-.03,0-.07,0-.07,0-.15,.01-.23,0-.03,0-.03,0-.07,0-.03,0-.05,0-.08,0-.04,0-.04-.01-.06-.01-.03,0-.01,0-.04,.01-.04,.01-.31,0-.35,0-.02,0-.03,0-.04,0-.02,0-.02,0-.04,0-.12,0,0-.01-.12-.01-.02,0-.01,.02-.04,.02,0,0-.02,0-.02,0h0Z"/>
        <path class="cls-2" d="M60.93,19.32c0,.1-.01,.27,0,.36,0,.03,0,.06,0,.09,0,.03-.01,.05,0,.08v.73c0,.08,0,.15,0,.21,0,.08,0,.15,0,.22v1.12s0,.19,0,.21l.03,.03s.02,0,.05,0c.57,0,1.17,0,1.74,0,.02-.07,0-.02-.03-.08l-.02-.06c-.03-.06-.03-.03-.05-.08-.01-.03-.01-.02-.03-.05h-.83s-.02-.02-.02-.03v-.26s0-.04,0-.06c0-.02,0-.03,0-.06v-.85s0-.05,0-.07c0-.03,0-.03,0-.07v-.51s0-.06,0-.09v-.17c0-.08,0-.17,0-.25,0-.02,0-.01,0-.04,0-.03,0-.05,0-.07v-.17c0-.06,0-.07,0-.12-.03,0-.02,0-.06,0-.03,0-.04,0-.06,0-.05,0-.08,0-.13,0h-.46s-.03,0-.06,0c-.03,0-.02,.02-.05,.03h0Z"/>
        <path class="cls-2" d="M66.35,19.58h.1s.04,0,.07,0h1.22s.04,0,.06,0c.02,0,.03,0,.06,0h.75c.11,0,.08-.01,.19,0,.04,0,.11,.01,.13-.02,.03-.03,0-.06,0-.12,0-.17,.1-.13-.48-.13h-.17s-.05,0-.08,0c-.03,0-.05,0-.08,0h-1.9s-.05,0-.08,0c-.02,0-.05,0-.05,.02,0,.03,.03,.03,.08,.09,.02,.03,.02,.01,.05,.04,.02,.03,0,.03,.04,.05,.03,.02,.06,.07,.1,.07h0Z"/>
        <path class="cls-2" d="M60.93,22.86s.02,0,.02,.02h.53s.08,0,.12,0c.05,0,.07,0,.11,0,.09,0,.15,0,.24,0,.1,0,.18,0,.29,0,.05,0,.08,0,.14,0h.85s.02-.01,.03-.03c-.02-.02-.02-.01-.04-.03,0,0,0,0,0,0,0,0,0,0,0,0,0,0,0,0,0,0-.02-.03,0-.01-.03-.02-.01,0,0,0-.01,0h-.01s0,0,0-.01c-.04-.02-.01-.02-.04-.05-.04-.04-.05,0-.05-.05h-.02v-.02c-.05,0,.02,0-.07-.03-.03,0,0,0-.02,0h-1.96s-.03,.02-.04,.03c0,.02,0,.18,0,.21h0Z"/>
        <path class="cls-2" d="M63.72,20.54c-.06,0-.06,.02-.09,.05-.04,.03-.03,0-.08,.07l-.19,.24s-.03,.08-.07,.14c-.03,.04-.1,.21-.11,.25,0,.04,0,.02-.02,.05,0,.02,0,0,0,.03-.03,.09-.05,.17-.05,.28,0,.1-.02,.19,.07,.24,.11,.06,.16,.06,.3,0,.02,0,.03-.01,.04-.02l.04-.04s.08-.04,.14-.15c.04-.07,.02,0,.08-.12,.02-.04,.02-.03,.04-.04,.02-.02,0-.02,.02-.05,.01-.02,.06-.05-.03-.08-.04-.01,.02,0-.01,0l-.08-.05s-.02-.03-.03-.04c-.13-.12-.04-.09-.09-.2-.02-.04,0-.08-.01-.13,0-.07,0-.05,.02-.11,0-.02,0-.04,.01-.06,0-.02,.01-.03,.02-.06l.07-.15s0-.03,.02-.05h0Z"/>
        <path class="cls-2" d="M63.66,20.94c0,.15-.02,.06,.02,.2,0,0,0,.01,0,.02v.03c.06,.1,.03,.05,.1,.1l.1,.06s.02-.04,.04-.07c.02-.03,.02-.04,.04-.08l.07-.16c.02-.05,.01-.05,.04-.12,.01-.03,0-.01,0-.05,0-.03,.02-.05,.02-.09,.01-.09,.04-.1,0-.19,0-.02,0-.04-.01-.06,0-.02-.02-.02-.03-.04-.04-.04-.02-.03-.09-.03-.02,0-.11,.05-.13,.07-.06,.08-.07,.09-.12,.18l-.04,.11s0,.03,0,.04c0,.02-.01,.01-.02,.03-.02,.03,0,0,0,.04h0Z"/>
        <path class="cls-2" d="M65.16,21.03c0,.11,0,.04,.02,.13,0,.03,0,.07,.02,.07,.05,0,.04-.2,.04-.24s-.01-.06-.04-.07c-.03,.02-.04,.07-.04,.1h0Z"/>
        <path class="cls-2" d="M63.68,21.82v-.03s-.03,0-.03,0t.03,.03Z"/>
        <path class="cls-2" d="M65.24,20.91s.01,0,0,0c0,0,0-.02,0,0Z"/>
      </g>
      <ellipse class="cls-1" cx="71.26" cy="18.68" rx=".14" ry="8.68"/>
      <text class="cls-3" transform="translate(73.9 18.15)"><tspan x="0" y="0">Layers of</tspan></text>
      <text class="cls-3" transform="translate(73.9 23.62)"><tspan x="0" y="0">Truth</tspan></text>
    </g>
  </g>
</svg>